<svg id="Group_457365" data-name="Group 457365" xmlns="http://www.w3.org/2000/svg" xmlns:xlink="http://www.w3.org/1999/xlink" width="164.354" height="102.501" viewBox="0 0 164.354 102.501">
  <defs>
    <clipPath id="clip-path">
      <path id="Rectangle_3583" data-name="Rectangle 3583" d="M.976,0l53.7,3.405-.9,4.722L0,4.538Z" fill="none"/>
    </clipPath>
    <clipPath id="clip-path-2">
      <path id="Rectangle_3584" data-name="Rectangle 3584" d="M1.11,0,16.724.9,15.646,7.063,0,6.09Z" fill="none"/>
    </clipPath>
    <clipPath id="clip-path-3">
      <path id="Rectangle_3586" data-name="Rectangle 3586" d="M1.651,0,115.275,5.289l-1.345,8.337L0,7.685Z" fill="none"/>
    </clipPath>
  </defs>
  <path id="Path_11261" data-name="Path 11261" d="M142.24,102,5.39,91.655A4.348,4.348,0,0,1,1.973,89.59a5.244,5.244,0,0,1-.728-2,6.446,6.446,0,0,1,.1-2.367L19.068,5.564A6.938,6.938,0,0,1,19.963,3.4,7.621,7.621,0,0,1,21.48,1.646,7.049,7.049,0,0,1,23.411.466,5.613,5.613,0,0,1,25.547.045L158.015,1.176a5.927,5.927,0,0,1,2.38.5,5.24,5.24,0,0,1,1.813,1.335,5.115,5.115,0,0,1,1.066,1.967,5.611,5.611,0,0,1,.136,2.4l-13.563,88.4a7.213,7.213,0,0,1-.92,2.566,7.63,7.63,0,0,1-1.744,2.031,7.4,7.4,0,0,1-2.315,1.287,6.661,6.661,0,0,1-2.629.338" transform="translate(0 0)" fill="#008fbe"/>
  <path id="Path_11262" data-name="Path 11262" d="M4.285,3.231l.007-.041a1.547,1.547,0,0,0,.44-.22,1.8,1.8,0,0,0,.357-.34,1.977,1.977,0,0,0,.258-.423,1.919,1.919,0,0,0,.143-.468A1.49,1.49,0,0,0,5.437.949,1.111,1.111,0,0,0,5.014.426,2.08,2.08,0,0,0,4.288.133a4.763,4.763,0,0,0-.959-.1L1.493.005A.378.378,0,0,0,1.354.03.43.43,0,0,0,1.14.209a.381.381,0,0,0-.05.132L.058,6.422a.324.324,0,0,0,0,.134.284.284,0,0,0,.056.111.281.281,0,0,0,.1.076.317.317,0,0,0,.13.03l2.017.039a4.473,4.473,0,0,0,1.068-.1,2.977,2.977,0,0,0,.9-.352,2.137,2.137,0,0,0,.656-.612,2.166,2.166,0,0,0,.348-.882,1.769,1.769,0,0,0,0-.617,1.2,1.2,0,0,0-.2-.476,1.232,1.232,0,0,0-.362-.338,1.72,1.72,0,0,0-.493-.2M2.2.951l.889.014a2.87,2.87,0,0,1,.574.058,1.028,1.028,0,0,1,.391.163.55.55,0,0,1,.2.283.9.9,0,0,1,.014.418,1.078,1.078,0,0,1-.145.4.96.96,0,0,1-.295.3,1.393,1.393,0,0,1-.455.184,2.632,2.632,0,0,1-.626.057l-.865-.014ZM2.4,5.87,1.371,5.85l.363-2.144,1.024.018a3.223,3.223,0,0,1,.665.071,1.262,1.262,0,0,1,.459.193.664.664,0,0,1,.246.324.934.934,0,0,1,.024.463,1.273,1.273,0,0,1-.187.5,1.122,1.122,0,0,1-.362.344,1.662,1.662,0,0,1-.526.2,3.082,3.082,0,0,1-.68.055" transform="translate(127.736 10.294)" fill="#fff"/>
  <path id="Path_11263" data-name="Path 11263" d="M2.956.426.156,6.033a.61.61,0,0,0-.067.276.507.507,0,0,0,.063.245.472.472,0,0,0,.172.177A.528.528,0,0,0,.585,6.8a.631.631,0,0,0,.193-.027.7.7,0,0,0,.178-.083.725.725,0,0,0,.151-.13.7.7,0,0,0,.11-.169l.654-1.42,2.314.042.178,1.436a.5.5,0,0,0,.054.172.472.472,0,0,0,.107.136.493.493,0,0,0,.151.089.553.553,0,0,0,.184.034H4.9a.65.65,0,0,0,.285-.061.726.726,0,0,0,.231-.17.69.69,0,0,0,.145-.242.573.573,0,0,0,.024-.278L4.652.451A.487.487,0,0,0,4.594.288.466.466,0,0,0,4.486.16.49.49,0,0,0,4.339.076.552.552,0,0,0,4.161.045L3.578.036a.633.633,0,0,0-.187.026.7.7,0,0,0-.174.079.727.727,0,0,0-.149.124.7.7,0,0,0-.111.161M2.3,4.033l.38-.826q.127-.268.252-.545T3.185,2.1q.123-.281.244-.564T3.668.978H3.71c.02.187.039.376.059.566s.039.38.06.569.042.378.064.564.046.371.071.552l.1.835Z" transform="translate(133.317 10.377)" fill="#fff"/>
  <path id="Path_11264" data-name="Path 11264" d="M4.661,3.024c-.031.19-.057.387-.079.587s-.041.4-.057.6-.031.4-.044.592-.027.38-.04.558H4.4L3.915,3.888,2.5.318A.468.468,0,0,0,2.32.1.5.5,0,0,0,2.187.037.56.56,0,0,0,2.035.014L1.7.009A.642.642,0,0,0,1.468.05a.72.72,0,0,0-.361.3.634.634,0,0,0-.083.223L.095,6.243A.541.541,0,0,0,.1,6.469a.477.477,0,0,0,.261.313.543.543,0,0,0,.221.05.64.64,0,0,0,.236-.041.718.718,0,0,0,.362-.3.638.638,0,0,0,.083-.224l.395-2.417c.031-.19.057-.384.078-.58s.04-.392.056-.588.03-.39.044-.581.027-.377.041-.558h.042L2.4,3.005l1.417,3.59A.475.475,0,0,0,4,6.818a.508.508,0,0,0,.133.062.563.563,0,0,0,.153.024l.335.006a.644.644,0,0,0,.237-.041.72.72,0,0,0,.364-.3.637.637,0,0,0,.083-.225L6.224.653a.535.535,0,0,0-.01-.225.477.477,0,0,0-.1-.185A.482.482,0,0,0,5.95.117.547.547,0,0,0,5.729.068.646.646,0,0,0,5.493.11a.721.721,0,0,0-.362.3.634.634,0,0,0-.082.223Z" transform="translate(139.826 10.473)" fill="#fff"/>
  <path id="Path_11265" data-name="Path 11265" d="M3.667,2.719,5.424.924a.61.61,0,0,0,.16-.279A.5.5,0,0,0,5.574.366.439.439,0,0,0,5.417.149.487.487,0,0,0,5.133.06a.581.581,0,0,0-.125.012A.626.626,0,0,0,4.887.11a.656.656,0,0,0-.113.062.664.664,0,0,0-.1.085l-2.8,2.874H1.842L2.256.547a.491.491,0,0,0-.01-.206.438.438,0,0,0-.089-.17A.443.443,0,0,0,2,.055.5.5,0,0,0,1.8.01l-.16,0a.594.594,0,0,0-.217.038.661.661,0,0,0-.332.277.58.58,0,0,0-.075.2L.085,6.322a.5.5,0,0,0,.009.207.442.442,0,0,0,.243.288.5.5,0,0,0,.2.046l.16,0a.592.592,0,0,0,.217-.038.659.659,0,0,0,.334-.277.582.582,0,0,0,.076-.206l.236-1.474,1.2-1.208,1.271,3a.439.439,0,0,0,.07.113.444.444,0,0,0,.1.086.475.475,0,0,0,.122.056.525.525,0,0,0,.139.021l.111,0a.606.606,0,0,0,.293-.07.664.664,0,0,0,.222-.189.6.6,0,0,0,.114-.258.482.482,0,0,0-.033-.277Z" transform="translate(146.817 10.576)" fill="#fff"/>
  <g id="Group_457356" data-name="Group 457356" transform="translate(18.483 75.848)" clip-path="url(#clip-path)">
    <path id="Path_11266" data-name="Path 11266" d="M2.659,3.782a1.443,1.443,0,0,1-.164.092,1.185,1.185,0,0,1-.17.066,1.042,1.042,0,0,1-.177.037,1.007,1.007,0,0,1-.185,0,.842.842,0,0,1-.429-.14A.808.808,0,0,1,1.258,3.5a1.4,1.4,0,0,1-.111-.52A2.73,2.73,0,0,1,1.214,2.3a2.78,2.78,0,0,1,.225-.657,1.9,1.9,0,0,1,.337-.484A1.294,1.294,0,0,1,2.194.871,1.031,1.031,0,0,1,2.664.79a.842.842,0,0,1,.152.023.752.752,0,0,1,.135.048.763.763,0,0,1,.119.07.871.871,0,0,1,.106.089.222.222,0,0,0,.09.054.258.258,0,0,0,.105.01.326.326,0,0,0,.109-.032.388.388,0,0,0,.1-.072l0,0A.417.417,0,0,0,3.667.86.4.4,0,0,0,3.7.731a.322.322,0,0,0-.01-.125.252.252,0,0,0-.06-.1A1.309,1.309,0,0,0,3.47.358a1.243,1.243,0,0,0-.42-.2A1.327,1.327,0,0,0,2.794.115a1.808,1.808,0,0,0-.742.11,2.1,2.1,0,0,0-.674.412,2.647,2.647,0,0,0-.543.692,3.463,3.463,0,0,0-.349.951,3.117,3.117,0,0,0-.068.973,1.785,1.785,0,0,0,.229.733,1.324,1.324,0,0,0,.475.474,1.522,1.522,0,0,0,.67.2,1.672,1.672,0,0,0,.3-.007,1.623,1.623,0,0,0,.29-.06,1.731,1.731,0,0,0,.277-.112,2,2,0,0,0,.265-.162.387.387,0,0,0,.094-.1A.4.4,0,0,0,3.074,4.1a.367.367,0,0,0,.013-.125.3.3,0,0,0-.033-.117.246.246,0,0,0-.072-.084.242.242,0,0,0-.1-.042.278.278,0,0,0-.111,0,.339.339,0,0,0-.113.048" transform="translate(0)" fill="#231f20"/>
    <path id="Path_11267" data-name="Path 11267" d="M2.975.569A.572.572,0,0,0,2.93.387a.491.491,0,0,0-.1-.145A.458.458,0,0,0,2.7.143.483.483,0,0,0,2.524.1a.561.561,0,0,0-.185.02A.667.667,0,0,0,2.162.2a.757.757,0,0,0-.154.129A.8.8,0,0,0,1.888.5L.121,3.9a.441.441,0,0,0-.05.178A.358.358,0,0,0,.1,4.238a.287.287,0,0,0,.093.119.278.278,0,0,0,.149.053A.332.332,0,0,0,.452,4.4a.4.4,0,0,0,.107-.049.451.451,0,0,0,.093-.08.473.473,0,0,0,.071-.107l.438-.905,1.34.088.044.937a.348.348,0,0,0,.024.113.3.3,0,0,0,.057.091.274.274,0,0,0,.084.062.287.287,0,0,0,.105.027l.026,0a.347.347,0,0,0,.167-.032.439.439,0,0,0,.141-.1.473.473,0,0,0,.094-.153.417.417,0,0,0,.026-.18ZM1.451,2.656l.255-.527q.085-.171.169-.348t.167-.356q.083-.179.165-.36l.162-.36.024,0c0,.122.007.246.011.37s.007.248.011.372.008.247.014.369.011.242.018.361l.025.545Z" transform="translate(3.339 0.291)" fill="#231f20"/>
    <path id="Path_11268" data-name="Path 11268" d="M3.486,1.486A1.5,1.5,0,0,0,3.5.859.831.831,0,0,0,3.275.437,1.086,1.086,0,0,0,2.852.189a2.228,2.228,0,0,0-.569-.1L1.276.022a.346.346,0,0,0-.14.021.425.425,0,0,0-.127.074.474.474,0,0,0-.1.115A.462.462,0,0,0,.852.378L.08,4.021a.4.4,0,0,0,0,.149A.326.326,0,0,0,.125,4.3a.282.282,0,0,0,.092.089.288.288,0,0,0,.128.039H.366A.345.345,0,0,0,.507,4.4.424.424,0,0,0,.634,4.33a.474.474,0,0,0,.1-.116.464.464,0,0,0,.058-.146l.284-1.343.612.04.444,1.578a.319.319,0,0,0,.038.086.288.288,0,0,0,.059.067A.279.279,0,0,0,2.3,4.54a.3.3,0,0,0,.089.02.357.357,0,0,0,.189-.041.457.457,0,0,0,.15-.128.473.473,0,0,0,.086-.181.387.387,0,0,0-.005-.2L2.416,2.7a1.564,1.564,0,0,0,.367-.159,1.41,1.41,0,0,0,.311-.252,1.489,1.489,0,0,0,.239-.349,1.868,1.868,0,0,0,.153-.45m-1.712.651L1.208,2.1l.3-1.431L2.077.7a1.56,1.56,0,0,1,.357.059A.6.6,0,0,1,2.676.9a.41.41,0,0,1,.119.221.8.8,0,0,1-.012.324,1.012,1.012,0,0,1-.125.325.735.735,0,0,1-.213.224.838.838,0,0,1-.3.124,1.349,1.349,0,0,1-.375.023" transform="translate(7.107 0.53)" fill="#231f20"/>
    <path id="Path_11269" data-name="Path 11269" d="M2,.068,1.133.013a.207.207,0,0,0-.084.013A.253.253,0,0,0,.974.07.281.281,0,0,0,.914.138.274.274,0,0,0,.88.225L.048,4.186a.238.238,0,0,0,0,.089.2.2,0,0,0,.029.075A.169.169,0,0,0,.13,4.4a.172.172,0,0,0,.076.023l.907.06A2.32,2.32,0,0,0,1.951,4.4a1.934,1.934,0,0,0,.7-.383,2.309,2.309,0,0,0,.529-.673,3.573,3.573,0,0,0,.335-.957,3.112,3.112,0,0,0,.066-.968A1.549,1.549,0,0,0,3.334.707,1.309,1.309,0,0,0,2.8.257,2.175,2.175,0,0,0,2,.068M1.162,3.845.849,3.824,1.509.679,1.822.7a1.388,1.388,0,0,1,.523.125.814.814,0,0,1,.343.306,1.1,1.1,0,0,1,.148.5,2.549,2.549,0,0,1-.061.707,2.889,2.889,0,0,1-.234.7,1.616,1.616,0,0,1-.353.48,1.233,1.233,0,0,1-.463.266,1.529,1.529,0,0,1-.563.06" transform="translate(10.745 0.76)" fill="#231f20"/>
    <path id="Path_11270" data-name="Path 11270" d="M3.64.173a.362.362,0,0,0-.147.022.441.441,0,0,0-.132.077.489.489,0,0,0-.1.12A.475.475,0,0,0,3.2.542L2.911,1.929,1.27,1.822,1.558.437a.41.41,0,0,0,0-.154A.336.336,0,0,0,1.511.154a.294.294,0,0,0-.1-.091.3.3,0,0,0-.133-.04.361.361,0,0,0-.146.022A.44.44,0,0,0,1,.121a.488.488,0,0,0-.1.12A.476.476,0,0,0,.84.392L.082,4.032a.413.413,0,0,0,0,.155.339.339,0,0,0,.051.13.3.3,0,0,0,.1.092.3.3,0,0,0,.134.04.36.36,0,0,0,.146-.022.439.439,0,0,0,.132-.077.489.489,0,0,0,.1-.12A.477.477,0,0,0,.8,4.08l.327-1.572,1.641.107L2.443,4.189a.413.413,0,0,0,0,.155.34.34,0,0,0,.051.13.3.3,0,0,0,.1.092.3.3,0,0,0,.134.04.361.361,0,0,0,.147-.022A.44.44,0,0,0,3,4.508a.489.489,0,0,0,.1-.12.477.477,0,0,0,.06-.151L3.919.588a.41.41,0,0,0,0-.155A.337.337,0,0,0,3.871.3a.3.3,0,0,0-.1-.091A.3.3,0,0,0,3.64.173" transform="translate(14.608 1.005)" fill="#231f20"/>
    <path id="Path_11271" data-name="Path 11271" d="M2.747.114a1.854,1.854,0,0,0-.761.108,1.954,1.954,0,0,0-.66.411,2.555,2.555,0,0,0-.517.693,3.669,3.669,0,0,0-.33.954,3.345,3.345,0,0,0-.068.977,1.906,1.906,0,0,0,.218.755,1.332,1.332,0,0,0,.473.5,1.519,1.519,0,0,0,.7.209,1.808,1.808,0,0,0,.764-.112,1.984,1.984,0,0,0,.665-.424,2.64,2.64,0,0,0,.521-.708,3.727,3.727,0,0,0,.331-.962,3.276,3.276,0,0,0,.065-.971A1.838,1.838,0,0,0,3.922.8,1.314,1.314,0,0,0,3.445.316a1.561,1.561,0,0,0-.7-.2M1.941,4.035a.764.764,0,0,1-.412-.144.826.826,0,0,1-.265-.351,1.51,1.51,0,0,1-.106-.53,2.87,2.87,0,0,1,.065-.681,3.065,3.065,0,0,1,.213-.665,1.91,1.91,0,0,1,.316-.489,1.2,1.2,0,0,1,.4-.295A.966.966,0,0,1,2.606.8a.76.76,0,0,1,.681.475,1.425,1.425,0,0,1,.11.517,2.8,2.8,0,0,1-.063.676,3.138,3.138,0,0,1-.214.672,2.01,2.01,0,0,1-.319.5,1.239,1.239,0,0,1-.4.307.936.936,0,0,1-.46.087" transform="translate(18.497 1.171)" fill="#231f20"/>
    <path id="Path_11272" data-name="Path 11272" d="M2.263,3.928l-1.4-.093L1.569.378a.345.345,0,0,0,0-.131.285.285,0,0,0-.044-.11A.252.252,0,0,0,1.445.06.259.259,0,0,0,1.331.027L1.216.019a.308.308,0,0,0-.124.019A.373.373,0,0,0,.98.1.411.411,0,0,0,.893.2a.4.4,0,0,0-.05.128l-.777,3.8a.333.333,0,0,0,0,.126.276.276,0,0,0,.042.106.243.243,0,0,0,.079.075.249.249,0,0,0,.109.033l1.834.122a.308.308,0,0,0,.125-.018.372.372,0,0,0,.112-.065.411.411,0,0,0,.087-.1A.4.4,0,0,0,2.5,4.281a.348.348,0,0,0,0-.131.288.288,0,0,0-.044-.11.254.254,0,0,0-.083-.078.26.26,0,0,0-.114-.034" transform="translate(22.942 1.534)" fill="#231f20"/>
    <path id="Path_11273" data-name="Path 11273" d="M2,.07,1.149.015a.245.245,0,0,0-.1.015A.3.3,0,0,0,.961.082a.325.325,0,0,0-.069.08.315.315,0,0,0-.04.1L.054,4.2a.275.275,0,0,0,0,.1.228.228,0,0,0,.035.087.2.2,0,0,0,.066.062.207.207,0,0,0,.091.027l.894.06a2.385,2.385,0,0,0,.856-.089A1.958,1.958,0,0,0,2.7,4.062a2.306,2.306,0,0,0,.534-.68,3.558,3.558,0,0,0,.333-.968,3.113,3.113,0,0,0,.059-.979A1.572,1.572,0,0,0,3.371.717,1.353,1.353,0,0,0,2.823.262,2.254,2.254,0,0,0,2,.07M1.182,3.89l-.32-.021L1.506.687l.32.02a1.438,1.438,0,0,1,.536.127.841.841,0,0,1,.353.31,1.11,1.11,0,0,1,.156.506,2.548,2.548,0,0,1-.056.715,2.877,2.877,0,0,1-.232.71,1.613,1.613,0,0,1-.357.486,1.246,1.246,0,0,1-.471.269,1.571,1.571,0,0,1-.574.06" transform="translate(26.097 1.733)" fill="#231f20"/>
    <path id="Path_11274" data-name="Path 11274" d="M2.385,3.956l-1.516-.1.266-1.327,1.182.077a.312.312,0,0,0,.126-.018.374.374,0,0,0,.113-.065.411.411,0,0,0,.088-.1.4.4,0,0,0,.05-.129h0a.346.346,0,0,0,0-.132.289.289,0,0,0-.045-.111.257.257,0,0,0-.084-.078.264.264,0,0,0-.115-.034L1.27,1.86,1.5.714,2.951.806A.313.313,0,0,0,3.077.788.375.375,0,0,0,3.189.723a.411.411,0,0,0,.088-.1.4.4,0,0,0,.05-.128.346.346,0,0,0,0-.132A.288.288,0,0,0,3.284.25.256.256,0,0,0,3.2.173.265.265,0,0,0,3.084.139L1.095.012a.2.2,0,0,0-.079.012A.237.237,0,0,0,.945.065.26.26,0,0,0,.889.13.251.251,0,0,0,.858.21L.042,4.264a.22.22,0,0,0,0,.083.183.183,0,0,0,.028.07.162.162,0,0,0,.053.049A.166.166,0,0,0,.2,4.489l2.056.137a.312.312,0,0,0,.126-.018.374.374,0,0,0,.113-.065.411.411,0,0,0,.088-.1.4.4,0,0,0,.05-.129h0a.348.348,0,0,0,0-.132.29.29,0,0,0-.045-.111A.258.258,0,0,0,2.5,3.99a.265.265,0,0,0-.115-.034" transform="translate(30.045 1.984)" fill="#231f20"/>
    <path id="Path_11275" data-name="Path 11275" d="M3.569,1.518A1.5,1.5,0,0,0,3.576.88.862.862,0,0,0,3.332.448,1.156,1.156,0,0,0,2.889.195,2.368,2.368,0,0,0,2.3.089L1.073.011A.18.18,0,0,0,1,.022.215.215,0,0,0,.936.059a.235.235,0,0,0-.05.058A.228.228,0,0,0,.857.192L.077,4.1a.4.4,0,0,0,0,.152.335.335,0,0,0,.052.128.3.3,0,0,0,.1.09.306.306,0,0,0,.133.04H.38a.361.361,0,0,0,.146-.021.432.432,0,0,0,.13-.075.474.474,0,0,0,.1-.118.461.461,0,0,0,.058-.149l.273-1.37.635.042.486,1.61a.328.328,0,0,0,.041.087.3.3,0,0,0,.062.068.3.3,0,0,0,.079.046.315.315,0,0,0,.093.02.372.372,0,0,0,.2-.042.461.461,0,0,0,.154-.131A.47.47,0,0,0,2.92,4.3a.389.389,0,0,0-.009-.2L2.478,2.752a1.605,1.605,0,0,0,.379-.162,1.422,1.422,0,0,0,.318-.257,1.483,1.483,0,0,0,.242-.356,1.854,1.854,0,0,0,.152-.459M1.8,2.181l-.589-.038L1.506.683,2.095.72a1.656,1.656,0,0,1,.371.06.637.637,0,0,1,.253.135.425.425,0,0,1,.127.225.807.807,0,0,1-.007.33,1,1,0,0,1-.124.332.736.736,0,0,1-.217.229.861.861,0,0,1-.305.126,1.418,1.418,0,0,1-.388.023" transform="translate(33.461 2.2)" fill="#231f20"/>
    <path id="Path_11276" data-name="Path 11276" d="M3.674.177A.359.359,0,0,0,3.53.2.427.427,0,0,0,3.4.272a.465.465,0,0,0-.1.116.449.449,0,0,0-.057.146L2.936,2.111c-.025.126-.046.256-.066.388s-.037.266-.053.4-.031.264-.045.392-.028.252-.042.369l-.026,0-.246-.992L1.714.251A.321.321,0,0,0,1.673.166.3.3,0,0,0,1.612.1.293.293,0,0,0,1.534.055a.31.31,0,0,0-.091-.02l-.2-.013A.358.358,0,0,0,1.1.044.426.426,0,0,0,.969.118a.465.465,0,0,0-.1.116A.45.45,0,0,0,.813.379L.075,4.123a.394.394,0,0,0,0,.15A.331.331,0,0,0,.126,4.4a.3.3,0,0,0,.1.089.3.3,0,0,0,.132.039A.357.357,0,0,0,.5,4.507a.425.425,0,0,0,.129-.074.465.465,0,0,0,.1-.116A.451.451,0,0,0,.783,4.17L1.1,2.575c.025-.125.046-.254.065-.383s.036-.26.052-.389.03-.258.044-.385.028-.25.042-.37l.026,0,.245.985.744,2.423a.324.324,0,0,0,.041.086.3.3,0,0,0,.061.067.3.3,0,0,0,.078.045.312.312,0,0,0,.092.02l.2.013a.358.358,0,0,0,.144-.021.426.426,0,0,0,.129-.074.465.465,0,0,0,.1-.116.451.451,0,0,0,.057-.147L3.955.58a.391.391,0,0,0,0-.15A.329.329,0,0,0,3.9.3a.3.3,0,0,0-.1-.089A.306.306,0,0,0,3.674.177" transform="translate(38.52 2.521)" fill="#231f20"/>
    <path id="Path_11277" data-name="Path 11277" d="M3.027.4A.348.348,0,0,0,3,.293.31.31,0,0,0,2.934.2a.3.3,0,0,0-.088-.06A.314.314,0,0,0,2.738.118L2.381.1a.357.357,0,0,0-.116.012.411.411,0,0,0-.109.048.454.454,0,0,0-.095.079.47.47,0,0,0-.073.1L.116,4.014A.437.437,0,0,0,.068,4.2.365.365,0,0,0,.1,4.362a.308.308,0,0,0,.1.123.305.305,0,0,0,.158.055.356.356,0,0,0,.119-.013.412.412,0,0,0,.112-.05.456.456,0,0,0,.1-.083.469.469,0,0,0,.072-.11l.44-.931,1.417.093.069.965a.357.357,0,0,0,.028.117.315.315,0,0,0,.062.094.3.3,0,0,0,.09.064.314.314,0,0,0,.112.028l.028,0a.369.369,0,0,0,.176-.033.447.447,0,0,0,.146-.107.469.469,0,0,0,.1-.158.416.416,0,0,0,.023-.185ZM1.489,2.736l.256-.542q.085-.176.17-.358t.168-.366q.083-.185.165-.371T2.409.728l.026,0c.007.126.014.253.02.381s.014.255.021.383.015.254.023.38.018.25.028.371l.04.562Z" transform="translate(42.324 2.762)" fill="#231f20"/>
    <path id="Path_11278" data-name="Path 11278" d="M4.309.218,4,.2a.319.319,0,0,0-.1.01.365.365,0,0,0-.1.041.4.4,0,0,0-.084.067.415.415,0,0,0-.065.09L2.615,2.352q-.056.106-.11.215L2.4,2.786l-.109.22q-.055.11-.111.219l-.026,0Q2.136,3.11,2.124,3T2.1,2.766q-.012-.114-.024-.227t-.027-.224L1.759.284a.307.307,0,0,0-.03-.1A.275.275,0,0,0,1.674.113.265.265,0,0,0,1.6.062.28.28,0,0,0,1.5.04L1.2.02a.323.323,0,0,0-.129.019A.382.382,0,0,0,.951.106a.415.415,0,0,0-.089.1A.4.4,0,0,0,.811.341L.066,4.188a.352.352,0,0,0,0,.135.3.3,0,0,0,.047.113.268.268,0,0,0,.087.08.276.276,0,0,0,.119.035l.038,0a.323.323,0,0,0,.13-.019A.381.381,0,0,0,.6,4.468a.415.415,0,0,0,.089-.1.4.4,0,0,0,.051-.131L1.078,2.5c.02-.1.039-.221.056-.343s.034-.251.048-.379.029-.257.042-.379.025-.24.036-.345l.026,0L1.42,2.128l.274,1.855a.307.307,0,0,0,.03.1.276.276,0,0,0,.056.075.267.267,0,0,0,.077.051.282.282,0,0,0,.094.023.318.318,0,0,0,.1-.01.363.363,0,0,0,.095-.04.4.4,0,0,0,.083-.066A.416.416,0,0,0,2.3,4.023l.972-1.775.546-1.032.026,0-.1.342c-.034.122-.07.249-.1.376s-.068.255-.1.376-.056.238-.076.343L3.132,4.391a.352.352,0,0,0,0,.135.3.3,0,0,0,.048.114.27.27,0,0,0,.088.08.278.278,0,0,0,.12.035l.051,0a.324.324,0,0,0,.13-.019.382.382,0,0,0,.116-.067.415.415,0,0,0,.09-.1.4.4,0,0,0,.051-.132L4.564.58a.349.349,0,0,0,0-.135A.3.3,0,0,0,4.517.332a.268.268,0,0,0-.088-.08.278.278,0,0,0-.12-.035" transform="translate(46.307 3.014)" fill="#231f20"/>
    <path id="Path_11279" data-name="Path 11279" d="M2.449,4.02l-1.562-.1.257-1.347,1.218.079a.323.323,0,0,0,.129-.019.38.38,0,0,0,.115-.066.411.411,0,0,0,.089-.1.4.4,0,0,0,.05-.131h0a.347.347,0,0,0,0-.134A.3.3,0,0,0,2.7,2.083.268.268,0,0,0,2.611,2a.278.278,0,0,0-.119-.035L1.274,1.89,1.5.725l1.494.1A.324.324,0,0,0,3.12.8.381.381,0,0,0,3.235.736a.411.411,0,0,0,.089-.1A.4.4,0,0,0,3.374.5a.346.346,0,0,0,0-.134A.3.3,0,0,0,3.326.256.268.268,0,0,0,3.239.177.278.278,0,0,0,3.12.143L1.072.013A.206.206,0,0,0,.99.025.242.242,0,0,0,.917.067.262.262,0,0,0,.86.133.252.252,0,0,0,.828.216L.041,4.329a.223.223,0,0,0,0,.085.189.189,0,0,0,.03.072.171.171,0,0,0,.056.051A.176.176,0,0,0,.2,4.559L2.319,4.7a.323.323,0,0,0,.129-.018.38.38,0,0,0,.115-.066.411.411,0,0,0,.089-.1.4.4,0,0,0,.05-.131h0a.348.348,0,0,0,0-.134.3.3,0,0,0-.048-.113.269.269,0,0,0-.088-.08.278.278,0,0,0-.119-.035" transform="translate(51.152 3.321)" fill="#231f20"/>
  </g>
  <path id="Path_11280" data-name="Path 11280" d="M2.659,3.781a1.443,1.443,0,0,1-.164.092,1.184,1.184,0,0,1-.17.066,1.042,1.042,0,0,1-.177.037,1.007,1.007,0,0,1-.185,0,.842.842,0,0,1-.428-.14A.808.808,0,0,1,1.258,3.5a1.4,1.4,0,0,1-.111-.52A2.73,2.73,0,0,1,1.214,2.3a2.78,2.78,0,0,1,.225-.657,1.9,1.9,0,0,1,.337-.484A1.294,1.294,0,0,1,2.194.871,1.031,1.031,0,0,1,2.664.79a.842.842,0,0,1,.152.023.753.753,0,0,1,.135.048.765.765,0,0,1,.119.07.874.874,0,0,1,.106.089.222.222,0,0,0,.09.054.257.257,0,0,0,.105.01.326.326,0,0,0,.109-.032.389.389,0,0,0,.1-.072l0,0A.417.417,0,0,0,3.667.86.4.4,0,0,0,3.7.731a.322.322,0,0,0-.01-.125.252.252,0,0,0-.06-.1A1.309,1.309,0,0,0,3.47.357a1.242,1.242,0,0,0-.42-.2A1.327,1.327,0,0,0,2.794.115a1.808,1.808,0,0,0-.742.11,2.1,2.1,0,0,0-.674.412,2.647,2.647,0,0,0-.543.692,3.464,3.464,0,0,0-.349.951,3.116,3.116,0,0,0-.068.973,1.784,1.784,0,0,0,.229.733,1.324,1.324,0,0,0,.475.474,1.522,1.522,0,0,0,.67.2,1.672,1.672,0,0,0,.3-.007,1.623,1.623,0,0,0,.29-.06,1.73,1.73,0,0,0,.277-.112,2,2,0,0,0,.265-.162.387.387,0,0,0,.094-.1A.4.4,0,0,0,3.073,4.1a.367.367,0,0,0,.013-.125.3.3,0,0,0-.033-.117.246.246,0,0,0-.072-.084.242.242,0,0,0-.1-.042.278.278,0,0,0-.111,0,.339.339,0,0,0-.113.048" transform="translate(18.412 75.74)" fill="#fff"/>
  <path id="Path_11281" data-name="Path 11281" d="M2.975.569A.571.571,0,0,0,2.93.387a.49.49,0,0,0-.1-.145A.458.458,0,0,0,2.7.143.483.483,0,0,0,2.523.1a.561.561,0,0,0-.185.02A.667.667,0,0,0,2.162.2a.757.757,0,0,0-.154.129A.8.8,0,0,0,1.888.5L.121,3.9a.441.441,0,0,0-.05.177A.358.358,0,0,0,.1,4.237a.287.287,0,0,0,.093.119.278.278,0,0,0,.149.053A.332.332,0,0,0,.452,4.4a.4.4,0,0,0,.107-.049.451.451,0,0,0,.093-.08.473.473,0,0,0,.071-.107l.438-.905,1.34.088.044.937a.348.348,0,0,0,.024.113.3.3,0,0,0,.057.091.274.274,0,0,0,.084.062.287.287,0,0,0,.105.027l.026,0a.347.347,0,0,0,.167-.032.439.439,0,0,0,.141-.1.473.473,0,0,0,.094-.153.417.417,0,0,0,.026-.18ZM1.451,2.655l.255-.527q.085-.171.169-.348t.167-.356q.083-.179.165-.36L2.368.7l.024,0c0,.122.007.246.011.369s.007.248.011.372.008.247.014.369.011.242.018.361l.025.545Z" transform="translate(21.75 76.03)" fill="#fff"/>
  <path id="Path_11282" data-name="Path 11282" d="M3.486,1.485A1.5,1.5,0,0,0,3.5.859.831.831,0,0,0,3.274.436,1.086,1.086,0,0,0,2.851.188a2.228,2.228,0,0,0-.569-.1L1.276.022a.346.346,0,0,0-.14.021.425.425,0,0,0-.127.074.474.474,0,0,0-.1.115A.462.462,0,0,0,.852.378L.08,4.02a.4.4,0,0,0,0,.149A.326.326,0,0,0,.124,4.3a.282.282,0,0,0,.092.089.288.288,0,0,0,.128.039H.366A.345.345,0,0,0,.507,4.4a.424.424,0,0,0,.127-.074.474.474,0,0,0,.1-.116.464.464,0,0,0,.058-.146l.284-1.343.612.04.443,1.578a.319.319,0,0,0,.038.086.287.287,0,0,0,.059.067.279.279,0,0,0,.076.045.3.3,0,0,0,.089.02.357.357,0,0,0,.189-.041.457.457,0,0,0,.15-.128.473.473,0,0,0,.086-.181.388.388,0,0,0-.005-.2L2.415,2.7a1.564,1.564,0,0,0,.367-.159,1.411,1.411,0,0,0,.311-.252,1.489,1.489,0,0,0,.239-.349,1.867,1.867,0,0,0,.153-.45m-1.711.651L1.208,2.1,1.51.669,2.077.7a1.56,1.56,0,0,1,.357.059A.6.6,0,0,1,2.676.9a.41.41,0,0,1,.119.221.8.8,0,0,1-.012.323,1.012,1.012,0,0,1-.125.325.735.735,0,0,1-.213.224.838.838,0,0,1-.3.124,1.35,1.35,0,0,1-.375.023" transform="translate(25.517 76.268)" fill="#fff"/>
  <path id="Path_11283" data-name="Path 11283" d="M2,.068,1.133.013a.207.207,0,0,0-.084.013A.253.253,0,0,0,.974.07.281.281,0,0,0,.914.138.274.274,0,0,0,.88.225L.047,4.185a.238.238,0,0,0,0,.089.2.2,0,0,0,.029.075A.169.169,0,0,0,.13,4.4a.172.172,0,0,0,.076.023l.906.06A2.32,2.32,0,0,0,1.951,4.4a1.934,1.934,0,0,0,.7-.383,2.309,2.309,0,0,0,.529-.673,3.573,3.573,0,0,0,.335-.957,3.111,3.111,0,0,0,.067-.968A1.548,1.548,0,0,0,3.334.707,1.309,1.309,0,0,0,2.8.257,2.174,2.174,0,0,0,2,.068M1.162,3.844.849,3.824,1.508.678,1.821.7a1.387,1.387,0,0,1,.523.125.814.814,0,0,1,.343.306,1.1,1.1,0,0,1,.148.5,2.548,2.548,0,0,1-.061.707,2.889,2.889,0,0,1-.234.7,1.616,1.616,0,0,1-.353.48,1.233,1.233,0,0,1-.463.266,1.528,1.528,0,0,1-.563.06" transform="translate(29.155 76.499)" fill="#fff"/>
  <path id="Path_11284" data-name="Path 11284" d="M3.64.172a.362.362,0,0,0-.147.022.441.441,0,0,0-.132.077.489.489,0,0,0-.1.12A.475.475,0,0,0,3.2.542L2.911,1.928,1.27,1.822,1.559.437a.41.41,0,0,0,0-.154A.336.336,0,0,0,1.511.154a.294.294,0,0,0-.1-.091.3.3,0,0,0-.133-.04.361.361,0,0,0-.146.022A.44.44,0,0,0,1,.121a.489.489,0,0,0-.1.12A.475.475,0,0,0,.84.392L.082,4.031a.412.412,0,0,0,0,.155.339.339,0,0,0,.051.13.3.3,0,0,0,.1.092.3.3,0,0,0,.133.04.36.36,0,0,0,.146-.022A.439.439,0,0,0,.638,4.35a.489.489,0,0,0,.1-.12A.477.477,0,0,0,.8,4.079l.327-1.572,1.641.107L2.443,4.188a.412.412,0,0,0,0,.155.34.34,0,0,0,.051.13.3.3,0,0,0,.1.092.3.3,0,0,0,.134.04.361.361,0,0,0,.147-.022A.44.44,0,0,0,3,4.507a.489.489,0,0,0,.1-.12.476.476,0,0,0,.06-.151L3.919.588a.41.41,0,0,0,0-.155A.337.337,0,0,0,3.871.3a.3.3,0,0,0-.1-.091A.3.3,0,0,0,3.64.172" transform="translate(33.017 76.743)" fill="#fff"/>
  <path id="Path_11285" data-name="Path 11285" d="M2.747.114a1.854,1.854,0,0,0-.761.108,1.954,1.954,0,0,0-.66.411,2.555,2.555,0,0,0-.516.693,3.669,3.669,0,0,0-.33.954,3.344,3.344,0,0,0-.069.977,1.906,1.906,0,0,0,.218.755,1.332,1.332,0,0,0,.473.5,1.519,1.519,0,0,0,.7.209,1.807,1.807,0,0,0,.764-.112,1.984,1.984,0,0,0,.665-.424,2.64,2.64,0,0,0,.521-.708,3.727,3.727,0,0,0,.331-.962,3.275,3.275,0,0,0,.065-.971A1.837,1.837,0,0,0,3.922.8,1.314,1.314,0,0,0,3.445.315a1.561,1.561,0,0,0-.7-.2M1.94,4.034a.764.764,0,0,1-.412-.144.826.826,0,0,1-.265-.351,1.51,1.51,0,0,1-.106-.53,2.87,2.87,0,0,1,.065-.681,3.065,3.065,0,0,1,.213-.665,1.91,1.91,0,0,1,.316-.489,1.2,1.2,0,0,1,.4-.295A.966.966,0,0,1,2.606.8a.76.76,0,0,1,.681.475,1.425,1.425,0,0,1,.11.517,2.8,2.8,0,0,1-.063.676,3.137,3.137,0,0,1-.214.672,2.01,2.01,0,0,1-.319.5,1.239,1.239,0,0,1-.4.307.936.936,0,0,1-.46.087" transform="translate(36.905 76.909)" fill="#fff"/>
  <path id="Path_11286" data-name="Path 11286" d="M2.263,3.927l-1.4-.093L1.569.378a.345.345,0,0,0,0-.131.285.285,0,0,0-.044-.11A.252.252,0,0,0,1.445.06.259.259,0,0,0,1.331.027L1.216.019a.308.308,0,0,0-.124.019A.373.373,0,0,0,.98.1.411.411,0,0,0,.893.2a.4.4,0,0,0-.05.127l-.777,3.8a.333.333,0,0,0,0,.126.276.276,0,0,0,.042.106.242.242,0,0,0,.079.075.249.249,0,0,0,.109.033l1.834.122a.308.308,0,0,0,.125-.018.372.372,0,0,0,.112-.065.411.411,0,0,0,.087-.1A.4.4,0,0,0,2.5,4.28a.347.347,0,0,0,0-.131.288.288,0,0,0-.044-.11.254.254,0,0,0-.083-.078.26.26,0,0,0-.114-.034" transform="translate(41.35 77.271)" fill="#fff"/>
  <path id="Path_11287" data-name="Path 11287" d="M2,.07,1.149.015a.245.245,0,0,0-.1.015A.3.3,0,0,0,.961.081a.325.325,0,0,0-.069.08.315.315,0,0,0-.04.1L.054,4.2a.275.275,0,0,0,0,.1.228.228,0,0,0,.035.087.2.2,0,0,0,.066.062.207.207,0,0,0,.091.027l.894.06a2.384,2.384,0,0,0,.855-.089A1.958,1.958,0,0,0,2.7,4.061a2.306,2.306,0,0,0,.534-.68,3.558,3.558,0,0,0,.333-.968,3.112,3.112,0,0,0,.059-.979A1.571,1.571,0,0,0,3.371.716,1.353,1.353,0,0,0,2.822.261,2.254,2.254,0,0,0,2,.07m-.822,3.82-.32-.021L1.506.687l.32.02a1.438,1.438,0,0,1,.536.127.841.841,0,0,1,.353.31,1.11,1.11,0,0,1,.156.506,2.548,2.548,0,0,1-.056.715,2.877,2.877,0,0,1-.232.71,1.613,1.613,0,0,1-.356.486,1.246,1.246,0,0,1-.471.269,1.571,1.571,0,0,1-.574.06" transform="translate(44.504 77.471)" fill="#fff"/>
  <path id="Path_11288" data-name="Path 11288" d="M2.385,3.955l-1.515-.1.266-1.327,1.182.077a.312.312,0,0,0,.126-.018.374.374,0,0,0,.113-.065.411.411,0,0,0,.088-.1.4.4,0,0,0,.05-.129.347.347,0,0,0,0-.132.289.289,0,0,0-.045-.111.257.257,0,0,0-.084-.078.264.264,0,0,0-.115-.034L1.27,1.86,1.5.713,2.95.806A.313.313,0,0,0,3.076.788.375.375,0,0,0,3.189.722a.411.411,0,0,0,.088-.1.4.4,0,0,0,.05-.128.345.345,0,0,0,0-.131A.288.288,0,0,0,3.284.25.256.256,0,0,0,3.2.172.265.265,0,0,0,3.084.138L1.095.012a.2.2,0,0,0-.079.012A.236.236,0,0,0,.945.065.26.26,0,0,0,.89.13.252.252,0,0,0,.858.211L.043,4.264a.22.22,0,0,0,0,.083.183.183,0,0,0,.028.07.162.162,0,0,0,.053.049A.166.166,0,0,0,.2,4.488l2.056.137a.312.312,0,0,0,.126-.018.374.374,0,0,0,.113-.065.411.411,0,0,0,.088-.1.4.4,0,0,0,.05-.129h0a.347.347,0,0,0,0-.132.29.29,0,0,0-.045-.111A.258.258,0,0,0,2.5,3.989a.265.265,0,0,0-.115-.034" transform="translate(48.452 77.72)" fill="#fff"/>
  <path id="Path_11289" data-name="Path 11289" d="M3.568,1.518A1.5,1.5,0,0,0,3.575.879.862.862,0,0,0,3.332.448,1.155,1.155,0,0,0,2.889.194,2.368,2.368,0,0,0,2.3.089L1.073.011A.18.18,0,0,0,1,.022.215.215,0,0,0,.936.059a.236.236,0,0,0-.05.058A.228.228,0,0,0,.857.191L.077,4.1a.4.4,0,0,0,0,.152.335.335,0,0,0,.052.128.3.3,0,0,0,.1.09.306.306,0,0,0,.133.04H.38a.36.36,0,0,0,.145-.021.432.432,0,0,0,.13-.075.474.474,0,0,0,.1-.118.461.461,0,0,0,.058-.149l.273-1.37.635.041.486,1.61a.329.329,0,0,0,.041.087.3.3,0,0,0,.062.068.3.3,0,0,0,.079.046.315.315,0,0,0,.093.02.372.372,0,0,0,.2-.042.461.461,0,0,0,.154-.131A.47.47,0,0,0,2.92,4.3a.389.389,0,0,0-.009-.2L2.478,2.751a1.605,1.605,0,0,0,.378-.162,1.422,1.422,0,0,0,.318-.257,1.483,1.483,0,0,0,.242-.356,1.854,1.854,0,0,0,.152-.459M1.8,2.18l-.589-.038L1.506.683,2.094.72a1.655,1.655,0,0,1,.371.06.637.637,0,0,1,.253.135.425.425,0,0,1,.127.225.806.806,0,0,1-.007.33,1,1,0,0,1-.124.332.736.736,0,0,1-.217.229.861.861,0,0,1-.305.126A1.418,1.418,0,0,1,1.8,2.18" transform="translate(51.867 77.937)" fill="#fff"/>
  <path id="Path_11290" data-name="Path 11290" d="M3.674.177A.359.359,0,0,0,3.53.2.427.427,0,0,0,3.4.272a.465.465,0,0,0-.1.116.449.449,0,0,0-.057.146L2.936,2.111c-.025.126-.046.256-.066.387s-.037.266-.053.4-.031.264-.045.392-.028.252-.042.369l-.026,0-.245-.992L1.714.251A.321.321,0,0,0,1.673.166.3.3,0,0,0,1.612.1.293.293,0,0,0,1.534.055a.31.31,0,0,0-.091-.02l-.2-.013A.358.358,0,0,0,1.1.044.426.426,0,0,0,.97.118a.465.465,0,0,0-.1.116A.449.449,0,0,0,.813.379L.075,4.122a.393.393,0,0,0,0,.15A.331.331,0,0,0,.126,4.4a.3.3,0,0,0,.1.089.3.3,0,0,0,.132.039A.357.357,0,0,0,.5,4.506a.425.425,0,0,0,.129-.074.465.465,0,0,0,.1-.116.451.451,0,0,0,.057-.146L1.1,2.575c.025-.125.046-.254.065-.383s.036-.26.052-.389.03-.258.044-.385.028-.25.042-.37l.026,0,.245.985.744,2.422a.325.325,0,0,0,.041.086.3.3,0,0,0,.061.067.3.3,0,0,0,.078.045.312.312,0,0,0,.092.02l.2.013a.358.358,0,0,0,.144-.021.426.426,0,0,0,.129-.074.465.465,0,0,0,.1-.116.451.451,0,0,0,.057-.147L3.954.579a.391.391,0,0,0,0-.15A.329.329,0,0,0,3.9.3a.3.3,0,0,0-.1-.089A.306.306,0,0,0,3.674.177" transform="translate(56.926 78.257)" fill="#fff"/>
  <path id="Path_11291" data-name="Path 11291" d="M3.027.4A.348.348,0,0,0,3,.293.31.31,0,0,0,2.934.2a.3.3,0,0,0-.088-.06A.314.314,0,0,0,2.737.118L2.38.095a.356.356,0,0,0-.115.012.412.412,0,0,0-.109.048.456.456,0,0,0-.095.079.47.47,0,0,0-.073.1L.116,4.013A.437.437,0,0,0,.068,4.2.365.365,0,0,0,.1,4.362a.308.308,0,0,0,.1.123.305.305,0,0,0,.158.055.356.356,0,0,0,.119-.013.412.412,0,0,0,.112-.05.456.456,0,0,0,.1-.083.469.469,0,0,0,.072-.11l.44-.931,1.416.093.069.965a.357.357,0,0,0,.028.117.315.315,0,0,0,.062.094.3.3,0,0,0,.09.064.315.315,0,0,0,.112.028l.028,0a.369.369,0,0,0,.176-.033.447.447,0,0,0,.146-.107.469.469,0,0,0,.1-.158.416.416,0,0,0,.023-.185ZM1.489,2.735l.256-.542q.085-.176.17-.358t.168-.366q.083-.185.165-.37T2.409.728l.026,0c.007.126.013.253.02.38s.014.255.021.383.015.254.023.38.018.25.028.371l.04.562Z" transform="translate(60.729 78.498)" fill="#fff"/>
  <path id="Path_11292" data-name="Path 11292" d="M4.309.218,4,.2a.32.32,0,0,0-.1.01.365.365,0,0,0-.1.041.4.4,0,0,0-.084.067.415.415,0,0,0-.065.09L2.615,2.352q-.056.106-.11.215L2.4,2.785l-.109.22q-.055.11-.111.219l-.026,0q-.014-.114-.026-.228T2.1,2.766q-.012-.114-.024-.227t-.027-.223L1.759.284a.306.306,0,0,0-.029-.1A.275.275,0,0,0,1.673.113.265.265,0,0,0,1.6.062.28.28,0,0,0,1.5.04L1.2.02a.323.323,0,0,0-.129.019A.382.382,0,0,0,.951.106a.415.415,0,0,0-.089.1A.4.4,0,0,0,.811.341L.066,4.187a.352.352,0,0,0,0,.135.3.3,0,0,0,.047.113.268.268,0,0,0,.087.08.276.276,0,0,0,.119.035l.038,0a.322.322,0,0,0,.13-.019A.381.381,0,0,0,.6,4.468a.415.415,0,0,0,.089-.1.4.4,0,0,0,.051-.131L1.078,2.5c.02-.1.039-.221.056-.343s.034-.251.048-.379.029-.257.042-.379.025-.24.036-.345l.026,0L1.42,2.128l.274,1.855a.307.307,0,0,0,.03.095.276.276,0,0,0,.056.075.267.267,0,0,0,.077.051.282.282,0,0,0,.094.023.318.318,0,0,0,.1-.01.363.363,0,0,0,.095-.04.4.4,0,0,0,.083-.066.416.416,0,0,0,.065-.089l.972-1.774.546-1.032.026,0-.1.342c-.034.122-.07.249-.1.376s-.068.255-.1.376-.056.238-.076.343L3.131,4.39a.352.352,0,0,0,0,.135.3.3,0,0,0,.048.113.27.27,0,0,0,.088.08.278.278,0,0,0,.12.035l.051,0a.324.324,0,0,0,.13-.019.382.382,0,0,0,.116-.067.415.415,0,0,0,.09-.1.4.4,0,0,0,.051-.132L4.564.579a.349.349,0,0,0,0-.135A.3.3,0,0,0,4.516.332a.268.268,0,0,0-.088-.08.278.278,0,0,0-.12-.035" transform="translate(64.711 78.75)" fill="#fff"/>
  <path id="Path_11293" data-name="Path 11293" d="M2.448,4.019l-1.561-.1.257-1.347,1.218.079a.323.323,0,0,0,.129-.019.38.38,0,0,0,.115-.066.411.411,0,0,0,.089-.1.4.4,0,0,0,.05-.131.348.348,0,0,0,0-.134A.3.3,0,0,0,2.7,2.082.268.268,0,0,0,2.611,2a.278.278,0,0,0-.119-.035L1.274,1.89,1.5.725l1.494.1A.324.324,0,0,0,3.12.8.381.381,0,0,0,3.235.736a.411.411,0,0,0,.089-.1A.4.4,0,0,0,3.374.5a.346.346,0,0,0,0-.134A.3.3,0,0,0,3.326.256.268.268,0,0,0,3.238.177.278.278,0,0,0,3.119.143L1.072.013A.206.206,0,0,0,.99.025.243.243,0,0,0,.917.067.262.262,0,0,0,.86.133.252.252,0,0,0,.828.216L.041,4.328a.222.222,0,0,0,0,.085.189.189,0,0,0,.03.072.171.171,0,0,0,.056.051A.176.176,0,0,0,.2,4.558L2.319,4.7a.323.323,0,0,0,.129-.018.38.38,0,0,0,.115-.066.411.411,0,0,0,.089-.1A.4.4,0,0,0,2.7,4.38h0a.348.348,0,0,0,0-.134.3.3,0,0,0-.048-.113.269.269,0,0,0-.088-.08.278.278,0,0,0-.119-.035" transform="translate(69.555 79.056)" fill="#fff"/>
  <g id="Group_457359" data-name="Group 457359" transform="translate(89.99 72.411)" clip-path="url(#clip-path-2)">
    <path id="Path_11294" data-name="Path 11294" d="M.425,2.29A4.746,4.746,0,0,1,.707,1.3a2.6,2.6,0,0,1,.42-.7A1.544,1.544,0,0,1,1.661.2,1.323,1.323,0,0,1,2.286.084a1.117,1.117,0,0,1,.572.182,1.086,1.086,0,0,1,.377.463,2.037,2.037,0,0,1,.16.735,4.4,4.4,0,0,1-.078,1,4.827,4.827,0,0,1-.283,1,2.705,2.705,0,0,1-.423.715,1.58,1.58,0,0,1-.538.422,1.289,1.289,0,0,1-.627.116,1.087,1.087,0,0,1-.571-.19A1.113,1.113,0,0,1,.5,4.044,2.124,2.124,0,0,1,.344,3.3,4.493,4.493,0,0,1,.425,2.29m2.154.129a5.157,5.157,0,0,0,.091-.795A1.719,1.719,0,0,0,2.615,1.1.574.574,0,0,0,2.441.815a.453.453,0,0,0-.27-.1.548.548,0,0,0-.3.065.812.812,0,0,0-.274.262,2.082,2.082,0,0,0-.24.5,5.416,5.416,0,0,0-.2.788,5.278,5.278,0,0,0-.092.8,1.837,1.837,0,0,0,.052.534.611.611,0,0,0,.172.3.434.434,0,0,0,.269.106.528.528,0,0,0,.3-.071.858.858,0,0,0,.277-.275,2.211,2.211,0,0,0,.243-.516,5.537,5.537,0,0,0,.2-.795" transform="translate(0.19 0.43)" fill="#231f20"/>
    <path id="Path_11295" data-name="Path 11295" d="M.422,2.3A4.742,4.742,0,0,1,.7,1.307a2.6,2.6,0,0,1,.42-.7A1.546,1.546,0,0,1,1.66.2,1.33,1.33,0,0,1,2.287.084a1.126,1.126,0,0,1,.575.183,1.092,1.092,0,0,1,.379.464,2.041,2.041,0,0,1,.162.737,4.4,4.4,0,0,1-.076,1,4.823,4.823,0,0,1-.282,1,2.7,2.7,0,0,1-.424.716,1.582,1.582,0,0,1-.539.423,1.3,1.3,0,0,1-.63.116,1.1,1.1,0,0,1-.574-.19A1.119,1.119,0,0,1,.5,4.054,2.129,2.129,0,0,1,.343,3.3,4.492,4.492,0,0,1,.422,2.3m2.164.129a5.155,5.155,0,0,0,.089-.8,1.721,1.721,0,0,0-.056-.522A.576.576,0,0,0,2.444.817a.457.457,0,0,0-.271-.1.551.551,0,0,0-.3.066.812.812,0,0,0-.275.263,2.08,2.08,0,0,0-.24.5,5.411,5.411,0,0,0-.2.79,5.276,5.276,0,0,0-.091.8,1.839,1.839,0,0,0,.053.535.614.614,0,0,0,.173.3.437.437,0,0,0,.27.106.531.531,0,0,0,.3-.071.858.858,0,0,0,.278-.276,2.209,2.209,0,0,0,.243-.518,5.532,5.532,0,0,0,.2-.8" transform="translate(3.627 0.63)" fill="#231f20"/>
    <path id="Path_11296" data-name="Path 11296" d="M2.789.1h0A.224.224,0,0,1,2.9.133a.217.217,0,0,1,.073.08A.244.244,0,0,1,3,.323a.287.287,0,0,1-.025.123L.535,5.954a.315.315,0,0,1-.116.136.29.29,0,0,1-.079.036.258.258,0,0,1-.085.009A.224.224,0,0,1,.144,6.1a.218.218,0,0,1-.073-.081.246.246,0,0,1-.028-.11.288.288,0,0,1,.026-.123L2.509.28A.315.315,0,0,1,2.625.144.292.292,0,0,1,2.7.108.259.259,0,0,1,2.789.1" transform="translate(6.776 0.392)" fill="#231f20"/>
    <path id="Path_11297" data-name="Path 11297" d="M.418,2.305A4.735,4.735,0,0,1,.7,1.312a2.6,2.6,0,0,1,.421-.7A1.55,1.55,0,0,1,1.658.2,1.342,1.342,0,0,1,2.289.085a1.14,1.14,0,0,1,.58.183,1.1,1.1,0,0,1,.384.466,2.048,2.048,0,0,1,.166.74A4.4,4.4,0,0,1,3.346,2.48a4.816,4.816,0,0,1-.281,1A2.7,2.7,0,0,1,2.64,4.2a1.586,1.586,0,0,1-.542.424,1.308,1.308,0,0,1-.634.117,1.111,1.111,0,0,1-.579-.191A1.13,1.13,0,0,1,.5,4.071a2.136,2.136,0,0,1-.162-.754A4.492,4.492,0,0,1,.418,2.305m2.181.13a5.153,5.153,0,0,0,.087-.8,1.725,1.725,0,0,0-.058-.524A.581.581,0,0,0,2.45.821a.463.463,0,0,0-.274-.1.556.556,0,0,0-.3.066.813.813,0,0,0-.276.264,2.077,2.077,0,0,0-.24.506,5.4,5.4,0,0,0-.195.793,5.274,5.274,0,0,0-.089.806,1.843,1.843,0,0,0,.055.537A.619.619,0,0,0,1.3,4a.443.443,0,0,0,.273.106.535.535,0,0,0,.3-.071.859.859,0,0,0,.279-.277,2.206,2.206,0,0,0,.243-.52,5.525,5.525,0,0,0,.2-.8" transform="translate(9.405 0.966)" fill="#231f20"/>
    <path id="Path_11298" data-name="Path 11298" d="M.415,2.311a4.731,4.731,0,0,1,.28-1A2.6,2.6,0,0,1,1.117.61,1.552,1.552,0,0,1,1.656.2,1.35,1.35,0,0,1,2.291.085a1.15,1.15,0,0,1,.583.184A1.11,1.11,0,0,1,3.26.737a2.053,2.053,0,0,1,.168.742,4.4,4.4,0,0,1-.072,1.008,4.812,4.812,0,0,1-.28,1,2.7,2.7,0,0,1-.425.721,1.588,1.588,0,0,1-.544.425,1.315,1.315,0,0,1-.637.117,1.12,1.12,0,0,1-.582-.192A1.137,1.137,0,0,1,.5,4.081,2.14,2.14,0,0,1,.34,3.325,4.491,4.491,0,0,1,.415,2.311m2.192.131a5.152,5.152,0,0,0,.086-.8,1.727,1.727,0,0,0-.059-.525.584.584,0,0,0-.18-.291.467.467,0,0,0-.275-.1.558.558,0,0,0-.3.066.813.813,0,0,0-.277.264,2.075,2.075,0,0,0-.24.507,5.4,5.4,0,0,0-.194.795,5.273,5.273,0,0,0-.088.808,1.845,1.845,0,0,0,.057.539.622.622,0,0,0,.177.305.447.447,0,0,0,.274.107.538.538,0,0,0,.306-.071.859.859,0,0,0,.28-.277,2.2,2.2,0,0,0,.243-.521,5.521,5.521,0,0,0,.2-.8" transform="translate(12.886 1.168)" fill="#231f20"/>
  </g>
  <path id="Path_11299" data-name="Path 11299" d="M.425,2.29A4.745,4.745,0,0,1,.707,1.3a2.6,2.6,0,0,1,.42-.7A1.544,1.544,0,0,1,1.661.2,1.323,1.323,0,0,1,2.285.084a1.116,1.116,0,0,1,.572.182,1.085,1.085,0,0,1,.377.463,2.036,2.036,0,0,1,.16.735,4.4,4.4,0,0,1-.078,1,4.827,4.827,0,0,1-.283.995,2.705,2.705,0,0,1-.423.715,1.58,1.58,0,0,1-.538.422,1.289,1.289,0,0,1-.627.116A1.087,1.087,0,0,1,.874,4.52,1.112,1.112,0,0,1,.5,4.044a2.124,2.124,0,0,1-.156-.749A4.492,4.492,0,0,1,.425,2.29m2.153.129a5.156,5.156,0,0,0,.091-.795,1.719,1.719,0,0,0-.054-.52A.573.573,0,0,0,2.44.815a.453.453,0,0,0-.27-.1.548.548,0,0,0-.3.066.812.812,0,0,0-.274.262,2.082,2.082,0,0,0-.24.5,5.415,5.415,0,0,0-.2.788,5.276,5.276,0,0,0-.092.8,1.836,1.836,0,0,0,.052.534.61.61,0,0,0,.172.3.434.434,0,0,0,.269.105A.529.529,0,0,0,1.861,4a.857.857,0,0,0,.277-.275,2.21,2.21,0,0,0,.243-.516,5.536,5.536,0,0,0,.2-.795" transform="translate(90.096 72.728)" fill="#fff"/>
  <path id="Path_11300" data-name="Path 11300" d="M.422,2.3A4.741,4.741,0,0,1,.7,1.307a2.6,2.6,0,0,1,.42-.7A1.546,1.546,0,0,1,1.66.2,1.33,1.33,0,0,1,2.287.084a1.125,1.125,0,0,1,.575.182,1.092,1.092,0,0,1,.379.464,2.041,2.041,0,0,1,.162.737,4.4,4.4,0,0,1-.076,1,4.823,4.823,0,0,1-.282,1,2.7,2.7,0,0,1-.424.716,1.582,1.582,0,0,1-.539.423,1.3,1.3,0,0,1-.63.116,1.1,1.1,0,0,1-.574-.19A1.119,1.119,0,0,1,.5,4.054,2.128,2.128,0,0,1,.343,3.3,4.491,4.491,0,0,1,.422,2.3m2.164.129a5.154,5.154,0,0,0,.089-.8,1.721,1.721,0,0,0-.056-.522A.576.576,0,0,0,2.444.817a.457.457,0,0,0-.271-.1.551.551,0,0,0-.3.066.812.812,0,0,0-.275.263,2.08,2.08,0,0,0-.24.5,5.411,5.411,0,0,0-.2.79,5.275,5.275,0,0,0-.091.8,1.838,1.838,0,0,0,.053.535.613.613,0,0,0,.173.3.437.437,0,0,0,.27.106.531.531,0,0,0,.3-.071.858.858,0,0,0,.278-.276,2.208,2.208,0,0,0,.243-.518,5.531,5.531,0,0,0,.2-.8" transform="translate(93.533 72.927)" fill="#fff"/>
  <path id="Path_11301" data-name="Path 11301" d="M2.789.1h0A.224.224,0,0,1,2.9.133a.217.217,0,0,1,.073.08A.244.244,0,0,1,3,.323a.286.286,0,0,1-.025.123L.535,5.953a.315.315,0,0,1-.116.136.29.29,0,0,1-.079.036.257.257,0,0,1-.085.009A.224.224,0,0,1,.144,6.1a.219.219,0,0,1-.073-.081.246.246,0,0,1-.028-.11.288.288,0,0,1,.026-.123L2.508.28A.315.315,0,0,1,2.625.144.292.292,0,0,1,2.7.108.259.259,0,0,1,2.789.1" transform="translate(96.681 72.689)" fill="#fff"/>
  <path id="Path_11302" data-name="Path 11302" d="M.418,2.3A4.734,4.734,0,0,1,.7,1.312a2.6,2.6,0,0,1,.421-.7A1.55,1.55,0,0,1,1.658.2,1.342,1.342,0,0,1,2.289.085a1.14,1.14,0,0,1,.58.183,1.1,1.1,0,0,1,.384.466,2.048,2.048,0,0,1,.166.74A4.4,4.4,0,0,1,3.345,2.48a4.816,4.816,0,0,1-.281,1A2.7,2.7,0,0,1,2.64,4.2a1.586,1.586,0,0,1-.542.424,1.308,1.308,0,0,1-.634.117A1.11,1.11,0,0,1,.884,4.55,1.13,1.13,0,0,1,.5,4.07a2.135,2.135,0,0,1-.162-.754A4.491,4.491,0,0,1,.418,2.3m2.181.13a5.153,5.153,0,0,0,.087-.8,1.724,1.724,0,0,0-.058-.524A.581.581,0,0,0,2.45.821a.463.463,0,0,0-.274-.1.556.556,0,0,0-.3.066.813.813,0,0,0-.276.264,2.077,2.077,0,0,0-.24.506,5.4,5.4,0,0,0-.195.793,5.273,5.273,0,0,0-.089.806,1.842,1.842,0,0,0,.055.537A.618.618,0,0,0,1.3,4a.443.443,0,0,0,.273.106.536.536,0,0,0,.3-.071.859.859,0,0,0,.279-.277,2.2,2.2,0,0,0,.243-.52,5.524,5.524,0,0,0,.2-.8" transform="translate(99.31 73.263)" fill="#fff"/>
  <path id="Path_11303" data-name="Path 11303" d="M.415,2.311a4.73,4.73,0,0,1,.28-1A2.6,2.6,0,0,1,1.117.609,1.552,1.552,0,0,1,1.656.2,1.35,1.35,0,0,1,2.291.085a1.149,1.149,0,0,1,.583.184A1.109,1.109,0,0,1,3.26.737a2.052,2.052,0,0,1,.168.742,4.4,4.4,0,0,1-.072,1.008,4.812,4.812,0,0,1-.28,1,2.7,2.7,0,0,1-.425.721,1.588,1.588,0,0,1-.544.425,1.315,1.315,0,0,1-.637.117,1.119,1.119,0,0,1-.582-.191A1.137,1.137,0,0,1,.5,4.08,2.14,2.14,0,0,1,.34,3.325,4.491,4.491,0,0,1,.415,2.311m2.191.131a5.151,5.151,0,0,0,.086-.8,1.726,1.726,0,0,0-.059-.525.584.584,0,0,0-.18-.291.467.467,0,0,0-.275-.1.558.558,0,0,0-.3.066.813.813,0,0,0-.277.264,2.075,2.075,0,0,0-.24.507,5.4,5.4,0,0,0-.194.795,5.272,5.272,0,0,0-.088.808,1.844,1.844,0,0,0,.057.539.621.621,0,0,0,.177.3.447.447,0,0,0,.274.107.538.538,0,0,0,.306-.071.859.859,0,0,0,.28-.277,2.2,2.2,0,0,0,.243-.521,5.52,5.52,0,0,0,.2-.8" transform="translate(102.79 73.465)" fill="#fff"/>
  <path id="Path_11304" data-name="Path 11304" d="M.26,0l.18.011L.516.783C.52.825.523.865.527.9l.009.115c0,.038.006.076.01.115s.008.079.012.121H.567l.057-.117.052-.111L.727.916.781.8,1.136.051l.173.01L.625,1.443l-.2-.012Z" transform="translate(84.317 72.938)" fill="#fff"/>
  <path id="Path_11305" data-name="Path 11305" d="M.713.027.905.038,1.1,1.472.918,1.462.83.661Q.822.6.816.542T.8.422Q.8.362.793.3T.783.179H.775L.721.3.667.414.612.53.555.645l-.381.772L0,1.407ZM.344.849.961.886l-.026.143L.317.992Z" transform="translate(85.344 72.998)" fill="#fff"/>
  <path id="Path_11306" data-name="Path 11306" d="M.259,0,.43.01.2,1.267.784,1.3l-.028.152L0,1.408Z" transform="translate(86.624 73.073)" fill="#fff"/>
  <path id="Rectangle_3585" data-name="Rectangle 3585" d="M.259,0,.43.01.171,1.419,0,1.409Z" transform="translate(87.618 73.131)" fill="#fff"/>
  <path id="Path_11307" data-name="Path 11307" d="M.259,0,.595.02A.7.7,0,0,1,.86.082a.433.433,0,0,1,.174.147.514.514,0,0,1,.081.227.983.983,0,0,1-.013.3,1.106,1.106,0,0,1-.1.3.723.723,0,0,1-.162.216A.61.61,0,0,1,.622,1.4a.756.756,0,0,1-.278.032L0,1.41ZM.351,1.282a.559.559,0,0,0,.213-.026.448.448,0,0,0,.167-.1A.572.572,0,0,0,.852.983.956.956,0,0,0,.925.747.857.857,0,0,0,.939.508.411.411,0,0,0,.882.33.313.313,0,0,0,.755.214a.508.508,0,0,0-.2-.048L.4.157.2,1.273Z" transform="translate(88.156 73.163)" fill="#fff"/>
  <path id="Path_11308" data-name="Path 11308" d="M.638.176.233.152.261,0l.98.059L1.213.211.808.187.575,1.445l-.17-.01Z" transform="translate(83.904 75.475)" fill="#fff"/>
  <path id="Path_11309" data-name="Path 11309" d="M.26,0,.431.01.322.6.946.639,1.054.048l.171.01L.965,1.469l-.171-.01L.917.8.293.757l-.122.663L0,1.41Z" transform="translate(85.124 75.549)" fill="#fff"/>
  <path id="Path_11310" data-name="Path 11310" d="M.26,0,.68.025A.746.746,0,0,1,.865.057.358.358,0,0,1,1,.134a.261.261,0,0,1,.075.129.441.441,0,0,1,0,.188.509.509,0,0,1-.069.182A.416.416,0,0,1,.887.758.486.486,0,0,1,.724.826.686.686,0,0,1,.531.84L.281.825l-.11.6L0,1.412ZM.533.693A.539.539,0,0,0,.675.685.315.315,0,0,0,.786.64.257.257,0,0,0,.864.559.344.344,0,0,0,.907.441a.285.285,0,0,0,0-.119A.157.157,0,0,0,.859.24.24.24,0,0,0,.765.191.611.611,0,0,0,.629.17L.4.156l-.1.523Zm-.027.1L.657.7l.274.765L.737,1.457Z" transform="translate(86.457 75.629)" fill="#fff"/>
  <path id="Path_11311" data-name="Path 11311" d="M.112.829.264,0,.435.01.282.845a.822.822,0,0,0-.015.215A.326.326,0,0,0,.308,1.2a.207.207,0,0,0,.086.08.3.3,0,0,0,.119.03A.355.355,0,0,0,.642,1.3a.3.3,0,0,0,.115-.068A.428.428,0,0,0,.85,1.095.87.87,0,0,0,.914.883L1.066.048l.164.01-.152.83a1.074,1.074,0,0,1-.089.285.577.577,0,0,1-.136.182.453.453,0,0,1-.172.094.576.576,0,0,1-.2.02A.513.513,0,0,1,.3,1.425a.326.326,0,0,1-.134-.113A.429.429,0,0,1,.1,1.118.979.979,0,0,1,.112.829" transform="translate(87.611 75.699)" fill="#fff"/>
  <g id="Group_457362" data-name="Group 457362" transform="translate(23.412 52.788)" clip-path="url(#clip-path-3)">
    <path id="Path_11312" data-name="Path 11312" d="M3.718.1,3.44.086H3.4L3.358.094,3.317.107l-.04.018C3.189.168,3.1.209,3.005.247s-.19.074-.291.106S2.507.416,2.4.443s-.225.052-.346.073a.36.36,0,0,0-.108.039.414.414,0,0,0-.094.07.432.432,0,0,0-.072.1.409.409,0,0,0-.043.113.348.348,0,0,0,0,.132.28.28,0,0,0,.043.11.245.245,0,0,0,.083.077.257.257,0,0,0,.115.032l.621.029a.258.258,0,0,1,.115.032.246.246,0,0,1,.083.077.281.281,0,0,1,.044.11.348.348,0,0,1,0,.132L1.777,6.485a.251.251,0,0,1-.032.079.261.261,0,0,1-.054.063.235.235,0,0,1-.069.041.191.191,0,0,1-.076.012L.481,6.624a.315.315,0,0,0-.126.02.389.389,0,0,0-.114.067.432.432,0,0,0-.089.1.416.416,0,0,0-.053.13l-.026.122a.353.353,0,0,0,0,.133.284.284,0,0,0,.043.111.247.247,0,0,0,.083.078.257.257,0,0,0,.115.033l3.234.168a.317.317,0,0,0,.127-.02A.39.39,0,0,0,3.786,7.5a.432.432,0,0,0,.09-.1.416.416,0,0,0,.053-.131l.026-.122a.352.352,0,0,0,0-.133A.284.284,0,0,0,3.914,6.9a.248.248,0,0,0-.084-.078.26.26,0,0,0-.116-.033L2.8,6.744a.156.156,0,0,1-.07-.02.149.149,0,0,1-.05-.047.171.171,0,0,1-.026-.067.213.213,0,0,1,0-.08L3.957.45a.348.348,0,0,0,0-.132.28.28,0,0,0-.044-.11A.246.246,0,0,0,3.833.131.258.258,0,0,0,3.718.1" transform="translate(0.03 0.139)" fill="#231f20"/>
    <path id="Path_11313" data-name="Path 11313" d="M1.453,6.876c.5-.442.973-.856,1.4-1.251s.81-.771,1.139-1.135a7.145,7.145,0,0,0,.817-1.066A3.354,3.354,0,0,0,5.241,2.38a2.641,2.641,0,0,0,.046-.907A1.625,1.625,0,0,0,5.02.763,1.439,1.439,0,0,0,4.464.29a2.081,2.081,0,0,0-.825-.2,2.482,2.482,0,0,0-.546.034,2.54,2.54,0,0,0-.509.146A3.159,3.159,0,0,0,2.1.52a4.559,4.559,0,0,0-.465.332.484.484,0,0,0-.109.124.471.471,0,0,0-.059.146.4.4,0,0,0,0,.149.32.32,0,0,0,.053.133.283.283,0,0,0,.1.087.3.3,0,0,0,.124.035.353.353,0,0,0,.135-.019.422.422,0,0,0,.132-.074A3.492,3.492,0,0,1,2.332,1.2a2.5,2.5,0,0,1,.338-.183A1.788,1.788,0,0,1,3.016.9a1.362,1.362,0,0,1,.35-.03A1.318,1.318,0,0,1,3.916,1a.858.858,0,0,1,.344.319,1.092,1.092,0,0,1,.146.47,1.982,1.982,0,0,1-.043.589,2.447,2.447,0,0,1-.2.566,3.713,3.713,0,0,1-.319.528,6.12,6.12,0,0,1-.391.488c-.137.156-.279.3-.416.445q-.164.168-.332.33t-.34.321q-.172.158-.346.314t-.349.309l-.213.185-.213.184-.214.183-.214.182a1.926,1.926,0,0,1-.176.127c-.066.043-.136.088-.2.136a1.415,1.415,0,0,0-.186.153.56.56,0,0,0-.124.178A.394.394,0,0,0,.1,7.226a.426.426,0,0,0,.082.186.5.5,0,0,0,.152.132A.428.428,0,0,0,.52,7.6l3.564.185a.364.364,0,0,0,.145-.023.446.446,0,0,0,.131-.077.492.492,0,0,0,.1-.119.472.472,0,0,0,.06-.149l.011-.055a.4.4,0,0,0,0-.152.326.326,0,0,0-.051-.127.286.286,0,0,0-.1-.089.3.3,0,0,0-.133-.038L2.623,6.872c-.089,0-.183-.007-.28-.009s-.2,0-.3,0l-.3.005-.292.009" transform="translate(4.944 0.228)" fill="#231f20"/>
    <path id="Path_11314" data-name="Path 11314" d="M3.787,3.852l.01-.047a2.91,2.91,0,0,0,.573-.252,2.32,2.32,0,0,0,.478-.366A2.078,2.078,0,0,0,5.209,2.7a2.255,2.255,0,0,0,.219-.611,1.956,1.956,0,0,0,.013-.812A1.345,1.345,0,0,0,5.134.663a1.535,1.535,0,0,0-.579-.4A2.434,2.434,0,0,0,3.749.1a2.517,2.517,0,0,0-.5.026,2.733,2.733,0,0,0-.473.117,3.3,3.3,0,0,0-.45.194A4.292,4.292,0,0,0,1.9.692a.473.473,0,0,0-.187.254.415.415,0,0,0-.017.149.333.333,0,0,0,.04.139l.013.023a.28.28,0,0,0,.089.1.287.287,0,0,0,.12.045A.349.349,0,0,0,2.1,1.39a.434.434,0,0,0,.138-.064,3.13,3.13,0,0,1,.316-.194A2.418,2.418,0,0,1,2.876.987,1.928,1.928,0,0,1,3.211.9,1.654,1.654,0,0,1,3.554.88a1.315,1.315,0,0,1,.479.106.819.819,0,0,1,.49.637,1.343,1.343,0,0,1-.019.495,1.63,1.63,0,0,1-.191.5,1.4,1.4,0,0,1-.366.407A1.772,1.772,0,0,1,3.38,3.3a3.051,3.051,0,0,1-.8.113.376.376,0,0,0-.138.03.45.45,0,0,0-.122.078.484.484,0,0,0-.095.114.459.459,0,0,0-.055.141.394.394,0,0,0,0,.144.323.323,0,0,0,.046.122.282.282,0,0,0,.088.088.289.289,0,0,0,.123.042,3.239,3.239,0,0,1,.848.19,1.342,1.342,0,0,1,.516.339.939.939,0,0,1,.227.467A1.5,1.5,0,0,1,4,5.748a1.7,1.7,0,0,1-.225.564,1.548,1.548,0,0,1-.388.418,1.611,1.611,0,0,1-.513.252,1.827,1.827,0,0,1-.6.066,2.054,2.054,0,0,1-.446-.07,1.746,1.746,0,0,1-.37-.15,1.786,1.786,0,0,1-.306-.211A2.157,2.157,0,0,1,.895,6.36a.273.273,0,0,0-.11-.08.308.308,0,0,0-.135-.02A.385.385,0,0,0,.509,6.3a.458.458,0,0,0-.13.1l-.029.03a.48.48,0,0,0-.087.127.448.448,0,0,0-.04.139.384.384,0,0,0,.008.137.32.32,0,0,0,.058.12A2.346,2.346,0,0,0,.6,7.28a2.192,2.192,0,0,0,.406.279,2.4,2.4,0,0,0,.513.2,3.09,3.09,0,0,0,.637.1,2.885,2.885,0,0,0,.925-.1A2.645,2.645,0,0,0,3.9,7.37a2.45,2.45,0,0,0,.631-.649,2.539,2.539,0,0,0,.367-.89,2.006,2.006,0,0,0,.028-.708,1.493,1.493,0,0,0-.6-1,1.857,1.857,0,0,0-.538-.272" transform="translate(10.247 0.476)" fill="#231f20"/>
    <path id="Path_11315" data-name="Path 11315" d="M5.175.169,4.725.148a.355.355,0,0,0-.09.008.4.4,0,0,0-.088.03.449.449,0,0,0-.082.05A.479.479,0,0,0,4.392.3L.644,4.684a.5.5,0,0,0-.036.048.489.489,0,0,0-.03.052.472.472,0,0,0-.023.055A.45.45,0,0,0,.539,4.9l-.028.136a.4.4,0,0,0,0,.152.324.324,0,0,0,.051.126.287.287,0,0,0,.1.088.3.3,0,0,0,.133.037l2.775.14L3.214,7.267a.4.4,0,0,0,0,.152.327.327,0,0,0,.052.127.29.29,0,0,0,.1.089.3.3,0,0,0,.134.038l.135.007a.367.367,0,0,0,.146-.023.446.446,0,0,0,.131-.077.488.488,0,0,0,.1-.119.467.467,0,0,0,.059-.149l.348-1.693.595.03a.369.369,0,0,0,.146-.023.446.446,0,0,0,.131-.077.487.487,0,0,0,.1-.119.466.466,0,0,0,.059-.149.4.4,0,0,0,0-.152A.325.325,0,0,0,5.4,5a.29.29,0,0,0-.1-.089.305.305,0,0,0-.134-.037l-.595-.03L5.455.57a.393.393,0,0,0,0-.151A.322.322,0,0,0,5.406.293a.287.287,0,0,0-.1-.088A.3.3,0,0,0,5.175.169M1.531,4.693,3.69,2.211c.068-.091.136-.179.2-.265l.2-.255c.066-.084.131-.168.195-.253s.127-.17.19-.257l.044,0c-.026.1-.055.212-.086.334s-.064.252-.1.382-.063.26-.092.382-.054.237-.074.335L3.722,4.8Z" transform="translate(15.469 0.857)" fill="#231f20"/>
    <path id="Path_11316" data-name="Path 11316" d="M3.39,2.88a2.159,2.159,0,0,0-.313.007,2.049,2.049,0,0,0-.29.049,2.385,2.385,0,0,0-.277.086c-.091.034-.182.074-.274.118L2.875.906l2.377.112A.388.388,0,0,0,5.4.994.464.464,0,0,0,5.54.914.5.5,0,0,0,5.646.791.475.475,0,0,0,5.707.637L5.715.6a.4.4,0,0,0,0-.157A.336.336,0,0,0,5.661.31a.3.3,0,0,0-.1-.091A.322.322,0,0,0,5.419.18L2.59.048A.384.384,0,0,0,2.445.07a.459.459,0,0,0-.132.073.5.5,0,0,0-.105.114A.484.484,0,0,0,2.142.4l-.8,3.019a.434.434,0,0,0-.015.108.382.382,0,0,0,.013.1.335.335,0,0,0,.039.09.306.306,0,0,0,.063.073l.083.07a.3.3,0,0,0,.087.051.327.327,0,0,0,.1.021.381.381,0,0,0,.106-.01.444.444,0,0,0,.106-.04c.093-.049.182-.092.269-.129a2.033,2.033,0,0,1,.26-.09,1.684,1.684,0,0,1,.267-.05,1.907,1.907,0,0,1,.291-.007,1.512,1.512,0,0,1,.6.143,1.063,1.063,0,0,1,.411.351,1.24,1.24,0,0,1,.2.539,2.122,2.122,0,0,1-.032.708,2.314,2.314,0,0,1-.265.711,1.989,1.989,0,0,1-.441.528,1.786,1.786,0,0,1-.564.321A1.674,1.674,0,0,1,2.28,7a2.174,2.174,0,0,1-.451-.069,1.8,1.8,0,0,1-.681-.348,2.219,2.219,0,0,1-.255-.245.3.3,0,0,0-.12-.082.336.336,0,0,0-.144-.019.408.408,0,0,0-.149.042.477.477,0,0,0-.136.1.5.5,0,0,0-.091.134.466.466,0,0,0-.041.147A.388.388,0,0,0,.223,6.8a.316.316,0,0,0,.065.123,2.654,2.654,0,0,0,.329.323,2.371,2.371,0,0,0,.417.275,2.536,2.536,0,0,0,.524.2,3.227,3.227,0,0,0,.65.1,2.6,2.6,0,0,0,.93-.125,2.816,2.816,0,0,0,.867-.461,2.947,2.947,0,0,0,.7-.782,3.3,3.3,0,0,0,.42-1.088,2.95,2.95,0,0,0,.038-1.073,1.668,1.668,0,0,0-.327-.763,1.582,1.582,0,0,0-.615-.467A2.341,2.341,0,0,0,3.39,2.88" transform="translate(28.561 1.468)" fill="#231f20"/>
    <path id="Path_11317" data-name="Path 11317" d="M3.5,3.212a1.669,1.669,0,0,0-.458.045,2.392,2.392,0,0,0-.48.171,3.086,3.086,0,0,0-.477.283,3.521,3.521,0,0,0-.448.384,7.756,7.756,0,0,1,.472-1.518,3.7,3.7,0,0,1,.61-.981,2.019,2.019,0,0,1,.7-.52A1.675,1.675,0,0,1,4.164.943a1.277,1.277,0,0,1,.465.112,1.3,1.3,0,0,1,.386.268.323.323,0,0,0,.118.076.352.352,0,0,0,.138.021.41.41,0,0,0,.144-.034A.476.476,0,0,0,5.55,1.3a.509.509,0,0,0,.108-.142.475.475,0,0,0,.049-.16A.4.4,0,0,0,5.695.837.324.324,0,0,0,5.618.7,1.871,1.871,0,0,0,5.364.482a1.788,1.788,0,0,0-.3-.177A1.9,1.9,0,0,0,4.7.183,2.257,2.257,0,0,0,4.29.127,2.542,2.542,0,0,0,3.216.31,2.984,2.984,0,0,0,2.2,1a4.644,4.644,0,0,0-.862,1.28A8.362,8.362,0,0,0,.727,4.222,6.24,6.24,0,0,0,.6,5.832,3.019,3.019,0,0,0,.887,7a1.8,1.8,0,0,0,.648.727,1.934,1.934,0,0,0,.938.28,2.129,2.129,0,0,0,.852-.135A2.523,2.523,0,0,0,4.1,7.41a2.909,2.909,0,0,0,.612-.75,3.248,3.248,0,0,0,.366-.991,3.307,3.307,0,0,0,.057-1.036,1.7,1.7,0,0,0-.268-.757A1.389,1.389,0,0,0,4.31,3.4,2.112,2.112,0,0,0,3.5,3.212M2.625,7.234a1.222,1.222,0,0,1-.448-.1,1,1,0,0,1-.342-.256,1.308,1.308,0,0,1-.234-.4,2.257,2.257,0,0,1-.124-.547,1.688,1.688,0,0,1,.05-.62,1.935,1.935,0,0,1,.261-.573,1.905,1.905,0,0,1,.432-.46,1.653,1.653,0,0,1,.563-.28q.055-.015.109-.025T3,3.949q.052-.006.1-.008t.1,0a1.3,1.3,0,0,1,.56.142.88.88,0,0,1,.351.344,1.247,1.247,0,0,1,.148.522,2.5,2.5,0,0,1-.05.676,2.608,2.608,0,0,1-.231.681A2.016,2.016,0,0,1,3.6,6.82a1.487,1.487,0,0,1-.463.319,1.158,1.158,0,0,1-.516.095" transform="translate(34.246 1.59)" fill="#231f20"/>
    <path id="Path_11318" data-name="Path 11318" d="M1.729.861l3.191.151A16.313,16.313,0,0,0,3.767,2.428a12.275,12.275,0,0,0-.9,1.441,12.87,12.87,0,0,0-.7,1.573,18.607,18.607,0,0,0-.556,1.811.439.439,0,0,0-.01.175.367.367,0,0,0,.056.148.33.33,0,0,0,.111.1.345.345,0,0,0,.155.045l.156.008a.409.409,0,0,0,.157-.023.485.485,0,0,0,.142-.079A.527.527,0,0,0,2.5,7.508a.509.509,0,0,0,.068-.156c.166-.673.334-1.282.525-1.848a12.116,12.116,0,0,1,.658-1.595A10.581,10.581,0,0,1,4.654,2.43,14.659,14.659,0,0,1,5.921.93.537.537,0,0,0,5.968.873.529.529,0,0,0,6.007.811.507.507,0,0,0,6.036.744.473.473,0,0,0,6.055.675L6.062.639a.425.425,0,0,0,0-.166A.357.357,0,0,0,6,.335a.326.326,0,0,0-.11-.1A.348.348,0,0,0,5.743.2L1.894.019a.412.412,0,0,0-.162.026.49.49,0,0,0-.144.084.526.526,0,0,0-.112.13.5.5,0,0,0-.063.162.425.425,0,0,0,0,.165.355.355,0,0,0,.059.138.324.324,0,0,0,.109.1.344.344,0,0,0,.149.04" transform="translate(39.823 1.991)" fill="#231f20"/>
    <path id="Path_11319" data-name="Path 11319" d="M4.246,4.1l.009-.048a3.623,3.623,0,0,0,.409-.31,3.644,3.644,0,0,0,.407-.415,2.878,2.878,0,0,0,.339-.5,2.09,2.09,0,0,0,.2-.574,2.246,2.246,0,0,0,.015-.828A1.549,1.549,0,0,0,5.344.754,1.5,1.5,0,0,0,4.777.3a2.186,2.186,0,0,0-.83-.191,2.5,2.5,0,0,0-.841.1,2.342,2.342,0,0,0-.728.368,2.241,2.241,0,0,0-.552.6,2.3,2.3,0,0,0-.312.795,1.875,1.875,0,0,0-.026.565,1.706,1.706,0,0,0,.129.488,1.977,1.977,0,0,0,.246.417,2.62,2.62,0,0,0,.323.349l-.009.048a4.13,4.13,0,0,0-.569.319,3.394,3.394,0,0,0-.528.435,2.648,2.648,0,0,0-.422.556,2.265,2.265,0,0,0-.251.682,1.937,1.937,0,0,0,.016.854,1.659,1.659,0,0,0,.369.694,1.918,1.918,0,0,0,.672.479,2.652,2.652,0,0,0,.925.208,3.024,3.024,0,0,0,.992-.109,2.66,2.66,0,0,0,.826-.4,2.39,2.39,0,0,0,.6-.629,2.224,2.224,0,0,0,.324-.8,2.08,2.08,0,0,0,.024-.691,1.642,1.642,0,0,0-.181-.55,2.02,2.02,0,0,0-.326-.439A3.513,3.513,0,0,0,4.246,4.1M2.373,2.016a1.568,1.568,0,0,1,.186-.5,1.394,1.394,0,0,1,.321-.376A1.326,1.326,0,0,1,3.3.91,1.348,1.348,0,0,1,3.789.844a1.219,1.219,0,0,1,.516.131.919.919,0,0,1,.342.308,1.085,1.085,0,0,1,.164.442,1.6,1.6,0,0,1-.017.535v.017a1.412,1.412,0,0,1-.3.628,1.478,1.478,0,0,1-.527.4,1.242,1.242,0,0,1-.612.111.961.961,0,0,1-.561-.238,1.571,1.571,0,0,1-.216-.231,1.136,1.136,0,0,1-.15-.265,1.055,1.055,0,0,1-.071-.307,1.328,1.328,0,0,1,.023-.357M2.55,7.332a1.619,1.619,0,0,1-.6-.142,1.241,1.241,0,0,1-.436-.33,1.16,1.16,0,0,1-.238-.48,1.409,1.409,0,0,1-.005-.591,1.809,1.809,0,0,1,.071-.262,1.911,1.911,0,0,1,.108-.246,2.1,2.1,0,0,1,.14-.23,2.383,2.383,0,0,1,.169-.214,1.416,1.416,0,0,1,.34-.282A1.312,1.312,0,0,1,2.487,4.4a1.159,1.159,0,0,1,.4-.019,1.011,1.011,0,0,1,.369.122,3.964,3.964,0,0,1,.455.294,1.734,1.734,0,0,1,.343.337,1.075,1.075,0,0,1,.191.411,1.254,1.254,0,0,1,0,.513,1.589,1.589,0,0,1-.208.539,1.508,1.508,0,0,1-.374.41,1.58,1.58,0,0,1-.506.253,1.8,1.8,0,0,1-.6.069" transform="translate(45.397 2.108)" fill="#231f20"/>
    <path id="Path_11320" data-name="Path 11320" d="M3.685.1a2.224,2.224,0,0,0-.876.14A2.571,2.571,0,0,0,2.02.713a2.9,2.9,0,0,0-.619.759,3.218,3.218,0,0,0-.363,1A3.3,3.3,0,0,0,.992,3.523a1.732,1.732,0,0,0,.285.768,1.456,1.456,0,0,0,.582.483,2.229,2.229,0,0,0,.844.194,1.742,1.742,0,0,0,.473-.045,2.464,2.464,0,0,0,.495-.173,3.143,3.143,0,0,0,.49-.288,3.549,3.549,0,0,0,.458-.391,7.732,7.732,0,0,1-.465,1.549,3.684,3.684,0,0,1-.617,1,2.033,2.033,0,0,1-.72.53,1.741,1.741,0,0,1-.774.133,1.348,1.348,0,0,1-.482-.116,1.371,1.371,0,0,1-.4-.276.342.342,0,0,0-.123-.078.371.371,0,0,0-.143-.022.423.423,0,0,0-.148.034.48.48,0,0,0-.138.09.51.51,0,0,0-.11.145.478.478,0,0,0-.049.164.4.4,0,0,0,.014.161.338.338,0,0,0,.08.137,1.939,1.939,0,0,0,.264.227,1.894,1.894,0,0,0,.316.182,2.027,2.027,0,0,0,.371.127,2.388,2.388,0,0,0,.43.061A2.635,2.635,0,0,0,3.035,7.94,3.017,3.017,0,0,0,4.08,7.232a4.628,4.628,0,0,0,.875-1.309,8.308,8.308,0,0,0,.6-1.981A6.214,6.214,0,0,0,5.665,2.3a3.047,3.047,0,0,0-.323-1.188A1.868,1.868,0,0,0,4.659.38,2.047,2.047,0,0,0,3.685.1M3,4.226a1.37,1.37,0,0,1-.58-.145.921.921,0,0,1-.367-.349A1.265,1.265,0,0,1,1.9,3.2a2.49,2.49,0,0,1,.042-.685,2.582,2.582,0,0,1,.229-.689,2.007,2.007,0,0,1,.372-.521A1.509,1.509,0,0,1,3.012.983a1.208,1.208,0,0,1,.53-.1,1.293,1.293,0,0,1,.464.1,1.051,1.051,0,0,1,.357.258,1.344,1.344,0,0,1,.249.408,2.275,2.275,0,0,1,.137.555,1.678,1.678,0,0,1-.042.63,1.932,1.932,0,0,1-.7,1.052,1.692,1.692,0,0,1-.578.285q-.057.015-.112.026t-.109.017q-.053.006-.1.008t-.1,0" transform="translate(58.858 2.733)" fill="#231f20"/>
    <path id="Path_11321" data-name="Path 11321" d="M3.874.111a2.149,2.149,0,0,0-1.05.211,2.659,2.659,0,0,0-.892.727,4.742,4.742,0,0,0-.7,1.228A8.844,8.844,0,0,0,.749,3.991,8.351,8.351,0,0,0,.594,5.732a3.819,3.819,0,0,0,.238,1.3,1.851,1.851,0,0,0,.608.826,1.728,1.728,0,0,0,.955.321,2.1,2.1,0,0,0,1.056-.217,2.718,2.718,0,0,0,.9-.75A4.915,4.915,0,0,0,5.06,5.958a8.987,8.987,0,0,0,.482-1.731,8.184,8.184,0,0,0,.149-1.733,3.657,3.657,0,0,0-.246-1.276,1.8,1.8,0,0,0-.615-.8A1.77,1.77,0,0,0,3.874.111M2.544,7.369a.89.89,0,0,1-.561-.219,1.267,1.267,0,0,1-.354-.61,3.5,3.5,0,0,1-.112-1.028,9.108,9.108,0,0,1,.165-1.475,9.453,9.453,0,0,1,.374-1.453,4.115,4.115,0,0,1,.48-.975A1.766,1.766,0,0,1,3.1,1.067a1.141,1.141,0,0,1,.627-.15.919.919,0,0,1,.562.207,1.2,1.2,0,0,1,.358.586,3.3,3.3,0,0,1,.117,1.006A8.916,8.916,0,0,1,4.6,4.181a9.637,9.637,0,0,1-.375,1.467,4.322,4.322,0,0,1-.484,1,1.84,1.84,0,0,1-.569.563,1.109,1.109,0,0,1-.63.158" transform="translate(64.702 3.004)" fill="#231f20"/>
    <path id="Path_11322" data-name="Path 11322" d="M3.765.11,3.458.1a.329.329,0,0,0-.045,0L3.367.1,3.323.116,3.279.135c-.095.046-.192.089-.293.129s-.207.077-.316.111S2.444.44,2.324.469s-.246.054-.378.076a.393.393,0,0,0-.118.04.43.43,0,0,0-.176.174.4.4,0,0,0-.042.119.35.35,0,0,0,0,.139.3.3,0,0,0,.053.116.284.284,0,0,0,.095.081.3.3,0,0,0,.128.034L2.917,1.3l-1,5.512a.27.27,0,0,1-.034.091.286.286,0,0,1-.062.073.271.271,0,0,1-.081.047.236.236,0,0,1-.092.014L.495,6.975A.355.355,0,0,0,.357,7a.41.41,0,0,0-.123.071.432.432,0,0,0-.094.109.408.408,0,0,0-.052.137l-.023.128a.355.355,0,0,0,0,.14A.306.306,0,0,0,.119,7.7a.286.286,0,0,0,.1.082.3.3,0,0,0,.128.035L3.917,8a.357.357,0,0,0,.139-.021.411.411,0,0,0,.123-.071.432.432,0,0,0,.094-.11.407.407,0,0,0,.052-.138l.023-.128a.354.354,0,0,0,0-.14.307.307,0,0,0-.053-.117.288.288,0,0,0-.1-.082.307.307,0,0,0-.129-.035l-.989-.051a.2.2,0,0,1-.085-.023.19.19,0,0,1-.063-.054A.2.2,0,0,1,2.9,6.953a.235.235,0,0,1,0-.093L4.044.48a.35.35,0,0,0,0-.139A.3.3,0,0,0,3.989.225a.285.285,0,0,0-.1-.081A.305.305,0,0,0,3.765.11" transform="translate(70.974 3.44)" fill="#231f20"/>
    <path id="Path_11323" data-name="Path 11323" d="M1.575,7.244c.535-.464,1.034-.9,1.486-1.315s.858-.81,1.2-1.193a7.086,7.086,0,0,0,.852-1.121,3.286,3.286,0,0,0,.429-1.1,2.649,2.649,0,0,0,.008-.956A1.749,1.749,0,0,0,5.228.812a1.678,1.678,0,0,0-.636-.5A2.456,2.456,0,0,0,3.674.1a2.841,2.841,0,0,0-.6.034,2.8,2.8,0,0,0-.554.153A3.361,3.361,0,0,0,2,.549,4.725,4.725,0,0,0,1.5.9a.483.483,0,0,0-.115.131.462.462,0,0,0-.058.154.4.4,0,0,0,0,.157.345.345,0,0,0,.065.14.329.329,0,0,0,.111.091.354.354,0,0,0,.138.037.4.4,0,0,0,.148-.019.446.446,0,0,0,.142-.077,3.616,3.616,0,0,1,.349-.249,2.65,2.65,0,0,1,.364-.192A1.959,1.959,0,0,1,3.024.951a1.651,1.651,0,0,1,1,.112,1,1,0,0,1,.394.337,1.162,1.162,0,0,1,.183.5,1.983,1.983,0,0,1-.02.62,2.686,2.686,0,0,1-.4.965,7,7,0,0,1-.866,1.065c-.364.379-.8.787-1.315,1.236S.9,6.718.245,7.26a.494.494,0,0,0-.109.128A.478.478,0,0,0,.1,7.463a.449.449,0,0,0-.022.08l0,.024a.4.4,0,0,0,0,.16.35.35,0,0,0,.061.134.329.329,0,0,0,.109.094.35.35,0,0,0,.147.04l4.127.215a.41.41,0,0,0,.159-.024A.47.47,0,0,0,4.82,8.1a.491.491,0,0,0,.108-.125.462.462,0,0,0,.059-.157L5,7.764a.4.4,0,0,0,0-.16.352.352,0,0,0-.062-.134.333.333,0,0,0-.11-.094.354.354,0,0,0-.148-.04L2.866,7.243c-.1-.005-.2-.008-.309-.01s-.217,0-.327,0l-.332,0-.322.008" transform="translate(76.401 3.546)" fill="#231f20"/>
    <path id="Path_11324" data-name="Path 11324" d="M4.023,4.089l.008-.05a3.157,3.157,0,0,0,.626-.266,2.4,2.4,0,0,0,.515-.387,2.058,2.058,0,0,0,.377-.514,2.2,2.2,0,0,0,.213-.647,1.975,1.975,0,0,0-.028-.861A1.491,1.491,0,0,0,5.36.712,1.839,1.839,0,0,0,4.693.288,2.922,2.922,0,0,0,3.787.11a2.931,2.931,0,0,0-.554.027A3.075,3.075,0,0,0,2.712.26a3.59,3.59,0,0,0-.492.2,4.538,4.538,0,0,0-.465.27.474.474,0,0,0-.124.12A.462.462,0,0,0,1.561,1a.413.413,0,0,0-.012.158.355.355,0,0,0,.052.147l.015.025a.326.326,0,0,0,.1.1.347.347,0,0,0,.136.048.405.405,0,0,0,.152-.009.468.468,0,0,0,.15-.068A3.3,3.3,0,0,1,2.5,1.2a2.622,2.622,0,0,1,.357-.153,2.164,2.164,0,0,1,.37-.091,1.925,1.925,0,0,1,.381-.02,1.58,1.58,0,0,1,.54.114,1,1,0,0,1,.379.27.932.932,0,0,1,.2.407,1.351,1.351,0,0,1,0,.524,1.594,1.594,0,0,1-.187.533,1.4,1.4,0,0,1-.387.43,1.905,1.905,0,0,1-.62.292,3.5,3.5,0,0,1-.884.118.425.425,0,0,0-.152.032.473.473,0,0,0-.132.082.482.482,0,0,0-.1.121.449.449,0,0,0-.054.149.4.4,0,0,0,0,.153.351.351,0,0,0,.058.13.332.332,0,0,0,.1.094.349.349,0,0,0,.14.045,3.9,3.9,0,0,1,.956.2,1.611,1.611,0,0,1,.593.361,1.038,1.038,0,0,1,.277.5,1.509,1.509,0,0,1,.007.608,1.658,1.658,0,0,1-.222.6,1.554,1.554,0,0,1-.411.442,1.731,1.731,0,0,1-.56.265,2.105,2.105,0,0,1-.667.069,2.457,2.457,0,0,1-.5-.076,2.112,2.112,0,0,1-.421-.16,2.143,2.143,0,0,1-.352-.225,2.535,2.535,0,0,1-.294-.272A.327.327,0,0,0,.8,6.653a.367.367,0,0,0-.151-.021.43.43,0,0,0-.155.041.475.475,0,0,0-.14.1l-.03.031a.474.474,0,0,0-.091.134.439.439,0,0,0-.038.147.392.392,0,0,0,.016.145.353.353,0,0,0,.07.127,2.745,2.745,0,0,0,.367.353,2.63,2.63,0,0,0,.467.3,2.906,2.906,0,0,0,.583.214,3.7,3.7,0,0,0,.716.1,3.326,3.326,0,0,0,1.027-.1,2.852,2.852,0,0,0,.892-.406A2.441,2.441,0,0,0,5.365,6.189a2.018,2.018,0,0,0-.005-.75A1.639,1.639,0,0,0,5.1,4.832a1.78,1.78,0,0,0-.462-.454,2.244,2.244,0,0,0-.614-.29" transform="translate(90.408 4.197)" fill="#231f20"/>
    <path id="Path_11325" data-name="Path 11325" d="M5.4.189l-.5-.023a.412.412,0,0,0-.1.008.447.447,0,0,0-.1.031.474.474,0,0,0-.089.053A.486.486,0,0,0,4.528.33L.573,4.963a.492.492,0,0,0-.038.051A.478.478,0,0,0,.5,5.069a.461.461,0,0,0-.023.058.442.442,0,0,0-.015.06l-.024.144a.4.4,0,0,0,0,.161.354.354,0,0,0,.064.134.339.339,0,0,0,.112.094.364.364,0,0,0,.15.04l3.1.157-.3,1.793a.4.4,0,0,0,0,.161.357.357,0,0,0,.064.135.343.343,0,0,0,.113.095.366.366,0,0,0,.151.04l.151.008a.42.42,0,0,0,.162-.024.472.472,0,0,0,.143-.081.488.488,0,0,0,.108-.126.457.457,0,0,0,.058-.158l.3-1.794L5.5,6a.422.422,0,0,0,.162-.024A.472.472,0,0,0,5.8,5.892a.486.486,0,0,0,.108-.126.456.456,0,0,0,.058-.158.4.4,0,0,0,0-.161A.356.356,0,0,0,5.9,5.313a.343.343,0,0,0-.113-.094.368.368,0,0,0-.151-.04l-.665-.033L5.728.615a.4.4,0,0,0,0-.16A.352.352,0,0,0,5.659.321.34.34,0,0,0,5.546.228.366.366,0,0,0,5.4.189M1.563,4.975,3.843,2.35c.072-.1.143-.189.213-.28l.209-.27c.069-.089.137-.178.2-.267s.133-.18.2-.272l.049,0c-.024.1-.051.225-.079.354s-.058.267-.087.4-.057.276-.082.4-.048.251-.065.355L4.014,5.1Z" transform="translate(96.241 4.615)" fill="#231f20"/>
    <path id="Path_11326" data-name="Path 11326" d="M3.52,3.042a2.492,2.492,0,0,0-.346.006,2.312,2.312,0,0,0-.318.051,2.624,2.624,0,0,0-.3.09c-.1.036-.2.078-.3.124l.6-2.355,2.631.124a.438.438,0,0,0,.167-.025A.489.489,0,0,0,5.8.974a.5.5,0,0,0,.111-.13.466.466,0,0,0,.06-.162L5.981.64A.408.408,0,0,0,5.975.474.364.364,0,0,0,5.908.337a.354.354,0,0,0-.117-.1A.382.382,0,0,0,5.634.2L2.116.036,1.278,3.606a.43.43,0,0,0-.012.114.392.392,0,0,0,.019.107.364.364,0,0,0,.047.1A.351.351,0,0,0,1.4,4l.1.074a.354.354,0,0,0,.1.054.386.386,0,0,0,.111.022.435.435,0,0,0,.117-.01A.483.483,0,0,0,1.942,4.1c.1-.052.2-.1.291-.135a2.225,2.225,0,0,1,.283-.095,1.9,1.9,0,0,1,.293-.052A2.2,2.2,0,0,1,3.13,3.81a1.79,1.79,0,0,1,.666.153,1.242,1.242,0,0,1,.47.371,1.335,1.335,0,0,1,.248.569,2.131,2.131,0,0,1,0,.747,2.267,2.267,0,0,1-.259.749,1.983,1.983,0,0,1-.463.556,1.885,1.885,0,0,1-1.3.43,2.558,2.558,0,0,1-.5-.074,2.137,2.137,0,0,1-.769-.369,2.58,2.58,0,0,1-.293-.259A.354.354,0,0,0,.786,6.6a.4.4,0,0,0-.16-.021.452.452,0,0,0-.163.044.5.5,0,0,0-.239.247.459.459,0,0,0-.039.155A.4.4,0,0,0,.2,7.171a.348.348,0,0,0,.077.13,3.083,3.083,0,0,0,.379.342,2.805,2.805,0,0,0,.474.291,3.017,3.017,0,0,0,.588.212,3.8,3.8,0,0,0,.723.1A2.946,2.946,0,0,0,3.468,8.12,2.99,2.99,0,0,0,4.4,7.636a2.95,2.95,0,0,0,.734-.823,3.23,3.23,0,0,0,.413-1.146,2.968,2.968,0,0,0-.009-1.131,1.813,1.813,0,0,0-.4-.806,1.86,1.86,0,0,0-.7-.494,2.769,2.769,0,0,0-.923-.194" transform="translate(102.54 4.909)" fill="#231f20"/>
    <path id="Path_11327" data-name="Path 11327" d="M3.644,3.392a1.906,1.906,0,0,0-.5.047,2.614,2.614,0,0,0-.523.179,3.247,3.247,0,0,0-.514.3,3.593,3.593,0,0,0-.477.4,7.606,7.606,0,0,1,.451-1.6,3.644,3.644,0,0,1,.628-1.033,2.087,2.087,0,0,1,.751-.547A1.887,1.887,0,0,1,4.276,1a1.5,1.5,0,0,1,.267.037,1.531,1.531,0,0,1,.692.366.382.382,0,0,0,.133.08.414.414,0,0,0,.154.022A.458.458,0,0,0,5.68,1.47a.5.5,0,0,0,.145-.093.5.5,0,0,0,.113-.15.466.466,0,0,0,.047-.169A.4.4,0,0,0,5.963.893.36.36,0,0,0,5.872.752,2.189,2.189,0,0,0,5.581.518,2.123,2.123,0,0,0,5.238.331,2.262,2.262,0,0,0,4.838.2,2.656,2.656,0,0,0,4.377.14,2.868,2.868,0,0,0,3.2.331a3.1,3.1,0,0,0-1.09.731,4.585,4.585,0,0,0-.892,1.347A8.2,8.2,0,0,0,.631,4.451a6.237,6.237,0,0,0-.069,1.7A3.184,3.184,0,0,0,.94,7.384a2.064,2.064,0,0,0,.75.769,2.3,2.3,0,0,0,1.051.3,2.406,2.406,0,0,0,.936-.14,2.653,2.653,0,0,0,.834-.488,2.9,2.9,0,0,0,.641-.79A3.183,3.183,0,0,0,5.51,5.989,3.318,3.318,0,0,0,5.524,4.9a1.826,1.826,0,0,0-.332-.8,1.624,1.624,0,0,0-.639-.5,2.5,2.5,0,0,0-.909-.2m-.773,4.24a1.447,1.447,0,0,1-.5-.11,1.178,1.178,0,0,1-.39-.271A1.456,1.456,0,0,1,1.7,6.825a2.371,2.371,0,0,1-.162-.577,1.688,1.688,0,0,1,.026-.654,1.919,1.919,0,0,1,.717-1.088,1.765,1.765,0,0,1,.609-.294q.06-.016.119-.027t.115-.017q.057-.006.111-.008t.107,0a1.537,1.537,0,0,1,.625.151,1.021,1.021,0,0,1,.4.363,1.323,1.323,0,0,1,.188.551,2.5,2.5,0,0,1-.023.713,2.556,2.556,0,0,1-.224.717,2,2,0,0,1-.383.542,1.546,1.546,0,0,1-.5.335,1.3,1.3,0,0,1-.566.1" transform="translate(108.837 5.052)" fill="#231f20"/>
  </g>
  <path id="Path_11328" data-name="Path 11328" d="M3.718.1,3.44.086H3.4L3.357.094,3.316.106l-.04.018C3.188.168,3.1.209,3,.247s-.19.074-.291.106S2.507.416,2.4.443s-.225.052-.346.073a.36.36,0,0,0-.108.039.414.414,0,0,0-.094.07.432.432,0,0,0-.072.1.408.408,0,0,0-.043.113.348.348,0,0,0,0,.132.28.28,0,0,0,.043.11.245.245,0,0,0,.083.077.257.257,0,0,0,.115.032l.62.029a.258.258,0,0,1,.115.032.245.245,0,0,1,.083.077.28.28,0,0,1,.044.11.348.348,0,0,1,0,.132L1.776,6.482a.251.251,0,0,1-.032.079.261.261,0,0,1-.054.063.235.235,0,0,1-.069.041.19.19,0,0,1-.076.012L.481,6.622a.316.316,0,0,0-.126.02.389.389,0,0,0-.114.067.432.432,0,0,0-.089.1.416.416,0,0,0-.053.13l-.026.122a.352.352,0,0,0,0,.133.284.284,0,0,0,.043.111.247.247,0,0,0,.083.078A.258.258,0,0,0,.31,7.42l3.233.168a.317.317,0,0,0,.127-.02A.391.391,0,0,0,3.785,7.5a.433.433,0,0,0,.09-.1.416.416,0,0,0,.053-.131l.026-.122a.352.352,0,0,0,0-.133A.284.284,0,0,0,3.913,6.9a.248.248,0,0,0-.084-.078.26.26,0,0,0-.116-.033L2.8,6.741a.156.156,0,0,1-.07-.02.149.149,0,0,1-.05-.047.171.171,0,0,1-.026-.067.212.212,0,0,1,0-.08L3.956.45a.348.348,0,0,0,0-.132.28.28,0,0,0-.044-.11A.245.245,0,0,0,3.833.131.258.258,0,0,0,3.718.1" transform="translate(23.3 52.717)" fill="#fff"/>
  <path id="Path_11329" data-name="Path 11329" d="M1.453,6.874c.5-.442.973-.856,1.4-1.251s.809-.771,1.139-1.135a7.144,7.144,0,0,0,.816-1.066A3.354,3.354,0,0,0,5.24,2.379a2.64,2.64,0,0,0,.046-.907,1.624,1.624,0,0,0-.266-.71A1.438,1.438,0,0,0,4.463.29a2.08,2.08,0,0,0-.824-.2,2.482,2.482,0,0,0-.546.034,2.539,2.539,0,0,0-.508.146A3.157,3.157,0,0,0,2.1.519a4.556,4.556,0,0,0-.465.332.484.484,0,0,0-.109.124.471.471,0,0,0-.059.146.4.4,0,0,0,0,.149.32.32,0,0,0,.053.133.282.282,0,0,0,.1.086.3.3,0,0,0,.124.035.353.353,0,0,0,.135-.019.422.422,0,0,0,.132-.074A3.5,3.5,0,0,1,2.332,1.2a2.5,2.5,0,0,1,.338-.183A1.788,1.788,0,0,1,3.015.9a1.362,1.362,0,0,1,.349-.03A1.317,1.317,0,0,1,3.915,1a.858.858,0,0,1,.344.319,1.091,1.091,0,0,1,.146.47,1.981,1.981,0,0,1-.043.588,2.447,2.447,0,0,1-.2.566,3.714,3.714,0,0,1-.319.528,6.121,6.121,0,0,1-.391.488c-.137.156-.279.3-.416.445q-.164.168-.332.33t-.34.321q-.172.158-.346.314t-.349.308l-.212.185-.213.184-.214.183-.214.182a1.933,1.933,0,0,1-.176.127c-.066.043-.136.088-.2.136a1.415,1.415,0,0,0-.186.153.56.56,0,0,0-.124.178A.394.394,0,0,0,.1,7.224a.426.426,0,0,0,.082.186.5.5,0,0,0,.152.132A.428.428,0,0,0,.52,7.6l3.563.185a.364.364,0,0,0,.145-.023.446.446,0,0,0,.131-.077.492.492,0,0,0,.1-.119.472.472,0,0,0,.06-.149l.011-.055a.4.4,0,0,0,0-.152.325.325,0,0,0-.051-.127.286.286,0,0,0-.1-.089.3.3,0,0,0-.133-.038L2.623,6.869c-.089,0-.183-.007-.28-.009s-.2,0-.3,0l-.3.005-.292.009" transform="translate(28.212 52.806)" fill="#fff"/>
  <path id="Path_11330" data-name="Path 11330" d="M3.786,3.851,3.8,3.8a2.91,2.91,0,0,0,.572-.252,2.321,2.321,0,0,0,.478-.366A2.078,2.078,0,0,0,5.207,2.7a2.254,2.254,0,0,0,.219-.61,1.955,1.955,0,0,0,.013-.812A1.344,1.344,0,0,0,5.133.662a1.534,1.534,0,0,0-.579-.4A2.433,2.433,0,0,0,3.749.1a2.516,2.516,0,0,0-.5.026,2.733,2.733,0,0,0-.473.117,3.3,3.3,0,0,0-.45.194A4.292,4.292,0,0,0,1.9.691a.473.473,0,0,0-.187.254.415.415,0,0,0-.017.149.333.333,0,0,0,.04.139l.013.023a.279.279,0,0,0,.089.1.287.287,0,0,0,.12.045A.349.349,0,0,0,2.1,1.389a.434.434,0,0,0,.138-.064,3.13,3.13,0,0,1,.316-.194A2.418,2.418,0,0,1,2.875.986,1.928,1.928,0,0,1,3.211.9a1.654,1.654,0,0,1,.343-.02,1.315,1.315,0,0,1,.479.106.819.819,0,0,1,.489.637,1.343,1.343,0,0,1-.019.495,1.63,1.63,0,0,1-.191.5,1.4,1.4,0,0,1-.366.407,1.772,1.772,0,0,1-.568.277,3.051,3.051,0,0,1-.8.113.376.376,0,0,0-.138.03.449.449,0,0,0-.122.078.484.484,0,0,0-.095.114.46.46,0,0,0-.055.141.393.393,0,0,0,0,.144.323.323,0,0,0,.046.122.282.282,0,0,0,.088.088.289.289,0,0,0,.123.042,3.237,3.237,0,0,1,.848.19,1.341,1.341,0,0,1,.516.339.938.938,0,0,1,.226.467,1.5,1.5,0,0,1-.02.574,1.7,1.7,0,0,1-.225.564,1.548,1.548,0,0,1-.388.418,1.611,1.611,0,0,1-.513.252,1.827,1.827,0,0,1-.6.066,2.053,2.053,0,0,1-.445-.07,1.745,1.745,0,0,1-.37-.149,1.785,1.785,0,0,1-.306-.211,2.156,2.156,0,0,1-.252-.256.273.273,0,0,0-.11-.08.308.308,0,0,0-.135-.02A.385.385,0,0,0,.509,6.3a.458.458,0,0,0-.13.1l-.029.03a.48.48,0,0,0-.087.127.448.448,0,0,0-.04.139.384.384,0,0,0,.008.137.32.32,0,0,0,.058.12A2.342,2.342,0,0,0,.6,7.277a2.19,2.19,0,0,0,.406.279,2.4,2.4,0,0,0,.513.2,3.089,3.089,0,0,0,.637.1,2.884,2.884,0,0,0,.925-.1A2.645,2.645,0,0,0,3.9,7.367a2.45,2.45,0,0,0,.631-.649,2.539,2.539,0,0,0,.367-.89,2.005,2.005,0,0,0,.028-.708,1.492,1.492,0,0,0-.6-1,1.856,1.856,0,0,0-.538-.272" transform="translate(33.513 53.052)" fill="#fff"/>
  <path id="Path_11331" data-name="Path 11331" d="M5.174.168,4.724.147a.355.355,0,0,0-.09.008.4.4,0,0,0-.088.03.45.45,0,0,0-.082.05A.48.48,0,0,0,4.391.3L.644,4.683a.494.494,0,0,0-.036.048.488.488,0,0,0-.03.052.472.472,0,0,0-.023.055.449.449,0,0,0-.016.057L.51,5.03a.4.4,0,0,0,0,.151.324.324,0,0,0,.051.126.287.287,0,0,0,.1.088.3.3,0,0,0,.133.037l2.774.14L3.213,7.264a.4.4,0,0,0,0,.152.327.327,0,0,0,.052.127.29.29,0,0,0,.1.089.3.3,0,0,0,.134.038l.135.007a.367.367,0,0,0,.146-.023.446.446,0,0,0,.131-.077.488.488,0,0,0,.1-.119.467.467,0,0,0,.059-.149l.348-1.692.595.03a.368.368,0,0,0,.146-.023.446.446,0,0,0,.131-.077.488.488,0,0,0,.1-.119.466.466,0,0,0,.059-.149.4.4,0,0,0,0-.152A.325.325,0,0,0,5.4,5a.289.289,0,0,0-.1-.088.3.3,0,0,0-.134-.037l-.594-.03L5.454.569a.393.393,0,0,0,0-.151A.322.322,0,0,0,5.4.293.287.287,0,0,0,5.307.2.3.3,0,0,0,5.174.168M1.531,4.692,3.689,2.21c.068-.091.136-.179.2-.265l.2-.255c.066-.084.131-.168.195-.253s.127-.17.189-.257l.044,0c-.026.1-.055.212-.086.334s-.064.252-.1.382-.063.26-.092.382-.054.236-.074.335L3.721,4.8Z" transform="translate(38.734 53.433)" fill="#fff"/>
  <path id="Path_11332" data-name="Path 11332" d="M3.389,2.879a2.158,2.158,0,0,0-.313.007,2.048,2.048,0,0,0-.29.049,2.384,2.384,0,0,0-.276.086c-.091.034-.182.074-.274.118L2.874.906l2.376.112A.388.388,0,0,0,5.4.993a.464.464,0,0,0,.137-.08A.5.5,0,0,0,5.645.79.475.475,0,0,0,5.705.636L5.713.6a.4.4,0,0,0,0-.157A.335.335,0,0,0,5.66.309a.3.3,0,0,0-.1-.091A.322.322,0,0,0,5.417.18L2.589.048A.384.384,0,0,0,2.444.07a.459.459,0,0,0-.132.073.5.5,0,0,0-.105.114A.483.483,0,0,0,2.142.4l-.8,3.018a.434.434,0,0,0-.015.108.382.382,0,0,0,.013.1.335.335,0,0,0,.038.09.306.306,0,0,0,.063.073l.083.07a.3.3,0,0,0,.087.051.327.327,0,0,0,.1.021.381.381,0,0,0,.106-.01.443.443,0,0,0,.106-.04c.093-.049.181-.092.269-.129a2.034,2.034,0,0,1,.26-.09,1.684,1.684,0,0,1,.267-.05,1.906,1.906,0,0,1,.291-.007,1.511,1.511,0,0,1,.6.143,1.062,1.062,0,0,1,.411.35,1.239,1.239,0,0,1,.2.539,2.121,2.121,0,0,1-.032.708,2.313,2.313,0,0,1-.265.71,1.989,1.989,0,0,1-.441.528,1.786,1.786,0,0,1-.564.321A1.674,1.674,0,0,1,2.279,7a2.173,2.173,0,0,1-.451-.069,1.8,1.8,0,0,1-.681-.348,2.218,2.218,0,0,1-.255-.245.3.3,0,0,0-.12-.082.336.336,0,0,0-.144-.019.408.408,0,0,0-.149.042.477.477,0,0,0-.136.1.5.5,0,0,0-.091.134.467.467,0,0,0-.041.147A.388.388,0,0,0,.223,6.8a.316.316,0,0,0,.065.123,2.655,2.655,0,0,0,.329.323,2.371,2.371,0,0,0,.417.274,2.534,2.534,0,0,0,.524.2,3.224,3.224,0,0,0,.65.1,2.6,2.6,0,0,0,.93-.125A2.816,2.816,0,0,0,4,7.232a2.947,2.947,0,0,0,.7-.782,3.3,3.3,0,0,0,.42-1.087,2.949,2.949,0,0,0,.038-1.072,1.667,1.667,0,0,0-.327-.763,1.581,1.581,0,0,0-.615-.466,2.34,2.34,0,0,0-.828-.182" transform="translate(51.821 54.041)" fill="#fff"/>
  <path id="Path_11333" data-name="Path 11333" d="M3.495,3.21a1.668,1.668,0,0,0-.457.045,2.392,2.392,0,0,0-.48.171,3.087,3.087,0,0,0-.477.283,3.523,3.523,0,0,0-.448.384A7.755,7.755,0,0,1,2.1,2.576a3.7,3.7,0,0,1,.61-.981,2.019,2.019,0,0,1,.7-.52A1.675,1.675,0,0,1,4.164.942a1.276,1.276,0,0,1,.465.111,1.3,1.3,0,0,1,.386.268.323.323,0,0,0,.117.076.352.352,0,0,0,.138.021.41.41,0,0,0,.144-.034A.476.476,0,0,0,5.549,1.3a.509.509,0,0,0,.108-.142.475.475,0,0,0,.049-.16A.4.4,0,0,0,5.693.836.323.323,0,0,0,5.617.7,1.87,1.87,0,0,0,5.363.481,1.787,1.787,0,0,0,5.06.3,1.9,1.9,0,0,0,4.7.183,2.257,2.257,0,0,0,4.289.126,2.541,2.541,0,0,0,3.216.309,2.983,2.983,0,0,0,2.2,1a4.644,4.644,0,0,0-.861,1.279A8.36,8.36,0,0,0,.727,4.221,6.238,6.238,0,0,0,.6,5.83,3.017,3.017,0,0,0,.887,7a1.794,1.794,0,0,0,.647.727,1.933,1.933,0,0,0,.938.28,2.129,2.129,0,0,0,.852-.135A2.523,2.523,0,0,0,4.1,7.407a2.909,2.909,0,0,0,.612-.75,3.248,3.248,0,0,0,.366-.99,3.306,3.306,0,0,0,.057-1.036,1.7,1.7,0,0,0-.268-.757A1.388,1.388,0,0,0,4.309,3.4a2.11,2.11,0,0,0-.814-.189m-.871,4.02a1.221,1.221,0,0,1-.448-.1,1,1,0,0,1-.342-.256,1.307,1.307,0,0,1-.234-.4,2.256,2.256,0,0,1-.124-.547,1.688,1.688,0,0,1,.05-.619,1.935,1.935,0,0,1,.261-.573,1.905,1.905,0,0,1,.432-.46,1.653,1.653,0,0,1,.563-.28q.055-.015.109-.025T3,3.947q.052-.006.1-.008t.1,0a1.3,1.3,0,0,1,.559.142.879.879,0,0,1,.351.343,1.246,1.246,0,0,1,.148.522,2.5,2.5,0,0,1-.05.676,2.607,2.607,0,0,1-.231.68,2.016,2.016,0,0,1-.369.514,1.487,1.487,0,0,1-.463.319,1.158,1.158,0,0,1-.516.095" transform="translate(57.504 54.163)" fill="#fff"/>
  <path id="Path_11334" data-name="Path 11334" d="M1.729.861l3.19.15A16.321,16.321,0,0,0,3.767,2.426a12.276,12.276,0,0,0-.9,1.441,12.864,12.864,0,0,0-.7,1.573,18.587,18.587,0,0,0-.556,1.811.439.439,0,0,0-.01.175.367.367,0,0,0,.056.148.33.33,0,0,0,.111.1.345.345,0,0,0,.155.045l.156.008a.409.409,0,0,0,.157-.023.485.485,0,0,0,.141-.079A.527.527,0,0,0,2.5,7.5a.509.509,0,0,0,.068-.156C2.73,6.676,2.9,6.068,3.09,5.5a12.114,12.114,0,0,1,.658-1.594,10.58,10.58,0,0,1,.9-1.479A14.659,14.659,0,0,1,5.92.929.534.534,0,0,0,5.967.872.528.528,0,0,0,6.005.81.507.507,0,0,0,6.035.743.475.475,0,0,0,6.053.674L6.06.638a.425.425,0,0,0,0-.166A.357.357,0,0,0,6,.334a.326.326,0,0,0-.11-.1A.347.347,0,0,0,5.742.2L1.894.019a.412.412,0,0,0-.162.026.49.49,0,0,0-.144.084.526.526,0,0,0-.112.13.5.5,0,0,0-.063.162.425.425,0,0,0,0,.165.355.355,0,0,0,.059.138.324.324,0,0,0,.109.1.344.344,0,0,0,.149.04" transform="translate(63.08 54.563)" fill="#fff"/>
  <path id="Path_11335" data-name="Path 11335" d="M4.245,4.094l.009-.048a3.623,3.623,0,0,0,.409-.309,3.644,3.644,0,0,0,.407-.415,2.878,2.878,0,0,0,.339-.5,2.09,2.09,0,0,0,.2-.573,2.245,2.245,0,0,0,.015-.828A1.548,1.548,0,0,0,5.343.753,1.5,1.5,0,0,0,4.776.3a2.184,2.184,0,0,0-.83-.19,2.5,2.5,0,0,0-.841.1,2.342,2.342,0,0,0-.728.367,2.241,2.241,0,0,0-.551.6,2.3,2.3,0,0,0-.312.794,1.874,1.874,0,0,0-.026.565,1.705,1.705,0,0,0,.129.488,1.976,1.976,0,0,0,.246.416,2.618,2.618,0,0,0,.323.349l-.009.048a4.128,4.128,0,0,0-.569.319,3.393,3.393,0,0,0-.528.435,2.647,2.647,0,0,0-.422.556,2.265,2.265,0,0,0-.251.682,1.936,1.936,0,0,0,.016.853,1.658,1.658,0,0,0,.369.694,1.917,1.917,0,0,0,.672.479,2.65,2.65,0,0,0,.925.208,3.023,3.023,0,0,0,.992-.109,2.659,2.659,0,0,0,.826-.4,2.39,2.39,0,0,0,.6-.629,2.224,2.224,0,0,0,.324-.8A2.08,2.08,0,0,0,5.16,5.44a1.641,1.641,0,0,0-.181-.55,2.017,2.017,0,0,0-.325-.439,3.5,3.5,0,0,0-.409-.358M2.373,2.015a1.568,1.568,0,0,1,.186-.5,1.394,1.394,0,0,1,.321-.376A1.326,1.326,0,0,1,3.3.909,1.348,1.348,0,0,1,3.789.843,1.218,1.218,0,0,1,4.3.974a.919.919,0,0,1,.341.307,1.084,1.084,0,0,1,.164.442,1.6,1.6,0,0,1-.017.535v.017a1.412,1.412,0,0,1-.3.628,1.478,1.478,0,0,1-.527.4,1.242,1.242,0,0,1-.612.111.961.961,0,0,1-.56-.238,1.571,1.571,0,0,1-.216-.231,1.136,1.136,0,0,1-.15-.265,1.055,1.055,0,0,1-.07-.307,1.328,1.328,0,0,1,.023-.357m.176,5.314a1.618,1.618,0,0,1-.6-.142,1.24,1.24,0,0,1-.436-.33,1.16,1.16,0,0,1-.238-.48,1.408,1.408,0,0,1-.005-.591,1.809,1.809,0,0,1,.071-.262,1.91,1.91,0,0,1,.108-.246,2.1,2.1,0,0,1,.14-.23,2.382,2.382,0,0,1,.169-.214,1.416,1.416,0,0,1,.34-.281A1.312,1.312,0,0,1,2.486,4.4a1.159,1.159,0,0,1,.4-.019,1.011,1.011,0,0,1,.369.122,3.961,3.961,0,0,1,.455.294,1.732,1.732,0,0,1,.343.337,1.074,1.074,0,0,1,.191.41,1.253,1.253,0,0,1,0,.513,1.589,1.589,0,0,1-.208.539,1.508,1.508,0,0,1-.374.41,1.58,1.58,0,0,1-.505.253,1.794,1.794,0,0,1-.6.069" transform="translate(68.651 54.679)" fill="#fff"/>
  <path id="Path_11336" data-name="Path 11336" d="M3.685.1a2.223,2.223,0,0,0-.875.14A2.571,2.571,0,0,0,2.02.713a2.9,2.9,0,0,0-.618.759,3.217,3.217,0,0,0-.363,1A3.3,3.3,0,0,0,.993,3.522a1.731,1.731,0,0,0,.285.768,1.455,1.455,0,0,0,.581.483,2.228,2.228,0,0,0,.844.194,1.742,1.742,0,0,0,.473-.045,2.464,2.464,0,0,0,.495-.173,3.143,3.143,0,0,0,.49-.288,3.548,3.548,0,0,0,.458-.391,7.73,7.73,0,0,1-.465,1.549,3.684,3.684,0,0,1-.617,1,2.033,2.033,0,0,1-.72.53,1.741,1.741,0,0,1-.774.133,1.347,1.347,0,0,1-.482-.116,1.37,1.37,0,0,1-.4-.275.342.342,0,0,0-.123-.078.371.371,0,0,0-.143-.022.423.423,0,0,0-.148.034.48.48,0,0,0-.138.09A.511.511,0,0,0,.5,7.06a.477.477,0,0,0-.049.164.4.4,0,0,0,.014.161.338.338,0,0,0,.08.137,1.937,1.937,0,0,0,.264.227,1.893,1.893,0,0,0,.316.182,2.026,2.026,0,0,0,.371.127,2.387,2.387,0,0,0,.43.06,2.634,2.634,0,0,0,1.111-.181,3.017,3.017,0,0,0,1.044-.708A4.628,4.628,0,0,0,4.953,5.92a8.307,8.307,0,0,0,.6-1.98A6.211,6.211,0,0,0,5.663,2.3,3.045,3.045,0,0,0,5.34,1.113,1.867,1.867,0,0,0,4.658.38,2.046,2.046,0,0,0,3.685.1M3,4.224a1.369,1.369,0,0,1-.58-.145.92.92,0,0,1-.367-.349A1.265,1.265,0,0,1,1.9,3.2a2.489,2.489,0,0,1,.042-.685,2.582,2.582,0,0,1,.229-.689,2.007,2.007,0,0,1,.372-.521A1.509,1.509,0,0,1,3.011.983a1.207,1.207,0,0,1,.53-.1A1.293,1.293,0,0,1,4,.988a1.051,1.051,0,0,1,.357.258,1.343,1.343,0,0,1,.248.408,2.273,2.273,0,0,1,.137.555,1.677,1.677,0,0,1-.042.63,1.931,1.931,0,0,1-.7,1.052,1.692,1.692,0,0,1-.578.285q-.057.015-.112.026t-.108.017q-.053.006-.1.008t-.1,0" transform="translate(82.108 55.301)" fill="#fff"/>
  <path id="Path_11337" data-name="Path 11337" d="M3.874.111A2.149,2.149,0,0,0,2.824.322a2.659,2.659,0,0,0-.891.727,4.742,4.742,0,0,0-.7,1.227A8.842,8.842,0,0,0,.75,3.989,8.349,8.349,0,0,0,.594,5.73a3.817,3.817,0,0,0,.238,1.3,1.85,1.85,0,0,0,.608.826,1.727,1.727,0,0,0,.955.321A2.1,2.1,0,0,0,3.45,7.959a2.718,2.718,0,0,0,.9-.75,4.915,4.915,0,0,0,.709-1.255,8.986,8.986,0,0,0,.482-1.73A8.181,8.181,0,0,0,5.69,2.493a3.655,3.655,0,0,0-.246-1.276,1.8,1.8,0,0,0-.614-.8A1.769,1.769,0,0,0,3.874.111M2.543,7.366a.89.89,0,0,1-.56-.219,1.266,1.266,0,0,1-.353-.609A3.5,3.5,0,0,1,1.518,5.51a9.105,9.105,0,0,1,.165-1.474,9.451,9.451,0,0,1,.374-1.453,4.114,4.114,0,0,1,.479-.975A1.766,1.766,0,0,1,3.1,1.066,1.141,1.141,0,0,1,3.726.916a.919.919,0,0,1,.561.206,1.2,1.2,0,0,1,.358.585,3.3,3.3,0,0,1,.117,1.005A8.913,8.913,0,0,1,4.6,4.179a9.636,9.636,0,0,1-.375,1.467,4.322,4.322,0,0,1-.484,1,1.84,1.84,0,0,1-.569.563,1.109,1.109,0,0,1-.63.158" transform="translate(87.95 55.572)" fill="#fff"/>
  <path id="Path_11338" data-name="Path 11338" d="M3.764.109,3.457.095a.328.328,0,0,0-.045,0L3.367.1,3.322.116,3.279.134c-.095.046-.192.089-.293.129S2.779.34,2.669.375,2.444.44,2.324.468s-.246.054-.378.076a.393.393,0,0,0-.118.04.429.429,0,0,0-.176.174.4.4,0,0,0-.042.119.351.351,0,0,0,0,.139.3.3,0,0,0,.053.116.284.284,0,0,0,.095.081.3.3,0,0,0,.128.034L2.916,1.3l-1,5.51a.27.27,0,0,1-.034.091.286.286,0,0,1-.062.072.271.271,0,0,1-.081.047.235.235,0,0,1-.092.014L.495,6.972a.356.356,0,0,0-.138.021.409.409,0,0,0-.123.071.431.431,0,0,0-.094.109.408.408,0,0,0-.052.137l-.023.128a.355.355,0,0,0,0,.14A.306.306,0,0,0,.119,7.7a.286.286,0,0,0,.1.082.3.3,0,0,0,.128.035L3.916,8a.357.357,0,0,0,.139-.021.41.41,0,0,0,.123-.071.432.432,0,0,0,.094-.11.408.408,0,0,0,.052-.138l.023-.128a.354.354,0,0,0,0-.14.307.307,0,0,0-.053-.117.288.288,0,0,0-.1-.082.307.307,0,0,0-.129-.035L3.078,7.1a.2.2,0,0,1-.085-.023.191.191,0,0,1-.063-.054.2.2,0,0,1-.035-.078.234.234,0,0,1,0-.093L4.043.479a.35.35,0,0,0,0-.139A.3.3,0,0,0,3.988.224a.284.284,0,0,0-.1-.081A.3.3,0,0,0,3.764.109" transform="translate(94.22 56.007)" fill="#fff"/>
  <path id="Path_11339" data-name="Path 11339" d="M1.575,7.242c.535-.464,1.034-.9,1.486-1.315s.857-.81,1.2-1.193a7.086,7.086,0,0,0,.851-1.121,3.286,3.286,0,0,0,.429-1.1,2.649,2.649,0,0,0,.009-.955A1.748,1.748,0,0,0,5.227.811a1.676,1.676,0,0,0-.636-.5A2.455,2.455,0,0,0,3.673.1a2.842,2.842,0,0,0-.6.034,2.8,2.8,0,0,0-.554.153A3.358,3.358,0,0,0,2,.549,4.715,4.715,0,0,0,1.5.9a.483.483,0,0,0-.115.131.461.461,0,0,0-.058.154.4.4,0,0,0,0,.157.344.344,0,0,0,.065.14.328.328,0,0,0,.111.091.354.354,0,0,0,.138.037.4.4,0,0,0,.148-.019.445.445,0,0,0,.142-.077,3.615,3.615,0,0,1,.349-.249,2.651,2.651,0,0,1,.364-.192A1.959,1.959,0,0,1,3.023.95a1.65,1.65,0,0,1,1,.112,1,1,0,0,1,.394.336,1.161,1.161,0,0,1,.182.5,1.982,1.982,0,0,1-.02.62,2.686,2.686,0,0,1-.4.964,7,7,0,0,1-.866,1.064c-.364.379-.8.787-1.315,1.236S.9,6.716.245,7.258a.494.494,0,0,0-.109.128A.478.478,0,0,0,.1,7.461a.449.449,0,0,0-.022.079l0,.024a.4.4,0,0,0,0,.16.35.35,0,0,0,.061.134.329.329,0,0,0,.109.094.35.35,0,0,0,.147.04l4.125.214a.41.41,0,0,0,.159-.024A.469.469,0,0,0,4.818,8.1a.491.491,0,0,0,.108-.125.463.463,0,0,0,.059-.157l.01-.057a.4.4,0,0,0,0-.16.352.352,0,0,0-.062-.134.332.332,0,0,0-.11-.094.353.353,0,0,0-.148-.04L2.865,7.24c-.1-.005-.2-.008-.309-.01s-.217,0-.327,0l-.332,0-.322.008" transform="translate(99.644 56.112)" fill="#fff"/>
  <path id="Path_11340" data-name="Path 11340" d="M4.022,4.087l.008-.05a3.157,3.157,0,0,0,.625-.266,2.4,2.4,0,0,0,.515-.387,2.057,2.057,0,0,0,.377-.514,2.2,2.2,0,0,0,.213-.646,1.974,1.974,0,0,0-.028-.861A1.49,1.49,0,0,0,5.359.711,1.838,1.838,0,0,0,4.693.287,2.92,2.92,0,0,0,3.786.11a2.93,2.93,0,0,0-.554.027,3.074,3.074,0,0,0-.521.123,3.591,3.591,0,0,0-.491.2,4.538,4.538,0,0,0-.464.27.474.474,0,0,0-.124.12A.462.462,0,0,0,1.561,1a.413.413,0,0,0-.012.158.355.355,0,0,0,.052.147l.015.025a.326.326,0,0,0,.1.1.347.347,0,0,0,.136.048.405.405,0,0,0,.152-.009.469.469,0,0,0,.15-.068A3.3,3.3,0,0,1,2.5,1.2a2.622,2.622,0,0,1,.357-.153,2.164,2.164,0,0,1,.37-.091,1.924,1.924,0,0,1,.381-.02,1.579,1.579,0,0,1,.54.113,1,1,0,0,1,.379.27.931.931,0,0,1,.2.407,1.351,1.351,0,0,1,0,.524,1.594,1.594,0,0,1-.187.532,1.4,1.4,0,0,1-.387.43,1.9,1.9,0,0,1-.619.292,3.5,3.5,0,0,1-.884.118.425.425,0,0,0-.152.032.472.472,0,0,0-.132.082.482.482,0,0,0-.1.121.449.449,0,0,0-.054.149h0a.4.4,0,0,0,0,.153.35.35,0,0,0,.057.13.332.332,0,0,0,.1.093.349.349,0,0,0,.14.045,3.893,3.893,0,0,1,.955.2,1.61,1.61,0,0,1,.593.361,1.038,1.038,0,0,1,.277.5,1.509,1.509,0,0,1,.007.608,1.658,1.658,0,0,1-.222.6,1.554,1.554,0,0,1-.411.442A1.731,1.731,0,0,1,3.16,7.4a2.1,2.1,0,0,1-.666.069,2.456,2.456,0,0,1-.5-.076,2.111,2.111,0,0,1-.421-.159,2.142,2.142,0,0,1-.352-.225,2.532,2.532,0,0,1-.294-.272A.326.326,0,0,0,.8,6.651.367.367,0,0,0,.648,6.63a.43.43,0,0,0-.155.041.475.475,0,0,0-.14.1L.323,6.8a.474.474,0,0,0-.091.134.439.439,0,0,0-.038.147A.392.392,0,0,0,.21,7.23a.353.353,0,0,0,.07.127,2.744,2.744,0,0,0,.367.353,2.629,2.629,0,0,0,.467.3A2.9,2.9,0,0,0,1.7,8.22a3.693,3.693,0,0,0,.715.1,3.325,3.325,0,0,0,1.026-.1,2.852,2.852,0,0,0,.891-.406A2.441,2.441,0,0,0,5.363,6.186a2.018,2.018,0,0,0-.005-.75A1.638,1.638,0,0,0,5.1,4.829a1.779,1.779,0,0,0-.462-.453,2.242,2.242,0,0,0-.614-.289" transform="translate(113.647 56.761)" fill="#fff"/>
  <path id="Path_11341" data-name="Path 11341" d="M5.394.188,4.89.165a.411.411,0,0,0-.1.008.447.447,0,0,0-.1.031A.475.475,0,0,0,4.6.257.486.486,0,0,0,4.527.33L.573,4.961a.488.488,0,0,0-.038.051A.478.478,0,0,0,.5,5.067a.461.461,0,0,0-.023.058.441.441,0,0,0-.015.06l-.024.144a.4.4,0,0,0,0,.16.354.354,0,0,0,.064.134.339.339,0,0,0,.112.094.363.363,0,0,0,.15.04l3.1.156-.3,1.792a.4.4,0,0,0,0,.161A.357.357,0,0,0,3.643,8a.343.343,0,0,0,.113.095.366.366,0,0,0,.151.04l.151.008a.42.42,0,0,0,.162-.024.472.472,0,0,0,.143-.081.488.488,0,0,0,.108-.126.457.457,0,0,0,.058-.158l.3-1.793L5.5,6a.422.422,0,0,0,.162-.024A.473.473,0,0,0,5.8,5.889a.487.487,0,0,0,.108-.126.456.456,0,0,0,.058-.158.4.4,0,0,0-.005-.161A.355.355,0,0,0,5.9,5.31a.343.343,0,0,0-.113-.094.368.368,0,0,0-.151-.04l-.665-.033L5.727.614a.4.4,0,0,0,0-.16A.352.352,0,0,0,5.657.321.34.34,0,0,0,5.545.227.366.366,0,0,0,5.394.188M1.563,4.973,3.842,2.348c.072-.1.143-.189.213-.28l.209-.27c.069-.089.137-.178.2-.267s.133-.18.2-.272l.049,0c-.024.1-.051.225-.079.354s-.058.267-.087.4-.057.275-.082.4-.048.25-.065.355L4.013,5.1Z" transform="translate(119.478 57.178)" fill="#fff"/>
  <path id="Path_11342" data-name="Path 11342" d="M3.519,3.04a2.491,2.491,0,0,0-.346.007,2.311,2.311,0,0,0-.318.051,2.623,2.623,0,0,0-.3.09c-.1.036-.2.078-.3.124l.6-2.354,2.63.124a.438.438,0,0,0,.167-.025A.489.489,0,0,0,5.8.973a.5.5,0,0,0,.111-.13.465.465,0,0,0,.06-.162L5.98.639A.408.408,0,0,0,5.974.474.364.364,0,0,0,5.907.336a.354.354,0,0,0-.117-.1A.382.382,0,0,0,5.633.2L2.116.035l-.838,3.57a.43.43,0,0,0-.012.114.392.392,0,0,0,.019.107.364.364,0,0,0,.047.1A.351.351,0,0,0,1.4,4l.1.074a.354.354,0,0,0,.1.054.386.386,0,0,0,.111.022.435.435,0,0,0,.117-.01A.483.483,0,0,0,1.942,4.1c.1-.052.2-.1.291-.135a2.224,2.224,0,0,1,.283-.095,1.894,1.894,0,0,1,.293-.052,2.2,2.2,0,0,1,.321-.007,1.789,1.789,0,0,1,.666.153,1.242,1.242,0,0,1,.47.371,1.335,1.335,0,0,1,.247.569,2.13,2.13,0,0,1,0,.747,2.266,2.266,0,0,1-.259.749,1.983,1.983,0,0,1-.463.556,1.885,1.885,0,0,1-1.3.431,2.557,2.557,0,0,1-.5-.074,2.136,2.136,0,0,1-.769-.369,2.578,2.578,0,0,1-.293-.259.354.354,0,0,0-.136-.087.4.4,0,0,0-.159-.021.452.452,0,0,0-.163.044.5.5,0,0,0-.239.247.459.459,0,0,0-.039.155A.4.4,0,0,0,.2,7.168a.348.348,0,0,0,.077.13A3.081,3.081,0,0,0,.66,7.64a2.8,2.8,0,0,0,.473.291,3.015,3.015,0,0,0,.588.212,3.8,3.8,0,0,0,.723.1,2.945,2.945,0,0,0,1.022-.129A2.989,2.989,0,0,0,4.4,7.633a2.95,2.95,0,0,0,.733-.823,3.23,3.23,0,0,0,.413-1.146,2.967,2.967,0,0,0-.009-1.131,1.812,1.812,0,0,0-.4-.806,1.858,1.858,0,0,0-.7-.493,2.767,2.767,0,0,0-.923-.194" transform="translate(125.775 57.471)" fill="#fff"/>
  <path id="Path_11343" data-name="Path 11343" d="M3.643,3.391a1.9,1.9,0,0,0-.5.047,2.614,2.614,0,0,0-.523.179,3.248,3.248,0,0,0-.514.3,3.6,3.6,0,0,0-.477.4,7.6,7.6,0,0,1,.451-1.6,3.644,3.644,0,0,1,.628-1.033,2.087,2.087,0,0,1,.751-.547A1.887,1.887,0,0,1,4.276,1a1.5,1.5,0,0,1,.267.037,1.529,1.529,0,0,1,.692.365.382.382,0,0,0,.133.08.414.414,0,0,0,.154.022.458.458,0,0,0,.157-.035.5.5,0,0,0,.145-.093.5.5,0,0,0,.113-.15.466.466,0,0,0,.047-.169A.4.4,0,0,0,5.962.892.359.359,0,0,0,5.871.751,2.187,2.187,0,0,0,5.58.517,2.122,2.122,0,0,0,5.237.33,2.261,2.261,0,0,0,4.837.2,2.655,2.655,0,0,0,4.376.14,2.867,2.867,0,0,0,3.2.33a3.1,3.1,0,0,0-1.089.731,4.585,4.585,0,0,0-.892,1.347A8.2,8.2,0,0,0,.632,4.449a6.235,6.235,0,0,0-.069,1.7A3.182,3.182,0,0,0,.939,7.381a2.063,2.063,0,0,0,.75.768,2.294,2.294,0,0,0,1.05.3,2.406,2.406,0,0,0,.936-.14,2.653,2.653,0,0,0,.834-.488,2.9,2.9,0,0,0,.641-.79,3.183,3.183,0,0,0,.358-1.044,3.317,3.317,0,0,0,.014-1.093,1.826,1.826,0,0,0-.331-.8,1.623,1.623,0,0,0-.639-.5,2.5,2.5,0,0,0-.909-.2M2.87,7.629a1.446,1.446,0,0,1-.5-.11,1.177,1.177,0,0,1-.39-.271A1.455,1.455,0,0,1,1.7,6.822a2.369,2.369,0,0,1-.162-.577,1.687,1.687,0,0,1,.027-.653A1.919,1.919,0,0,1,2.284,4.5a1.765,1.765,0,0,1,.609-.294q.06-.016.119-.027t.115-.017q.057-.006.111-.008t.107,0a1.536,1.536,0,0,1,.625.151,1.02,1.02,0,0,1,.4.363,1.322,1.322,0,0,1,.188.551,2.5,2.5,0,0,1-.023.713,2.555,2.555,0,0,1-.224.717,2,2,0,0,1-.383.542,1.546,1.546,0,0,1-.5.335,1.3,1.3,0,0,1-.566.1" transform="translate(132.069 57.613)" fill="#fff"/>
  <path id="Path_11344" data-name="Path 11344" d="M16.048,14.605,2.159,14.037a1.792,1.792,0,0,1-.8-.218,1.7,1.7,0,0,1-.579-.528,1.927,1.927,0,0,1-.3-.759A2.369,2.369,0,0,1,.5,11.623L2.5,2.3a2.815,2.815,0,0,1,.361-.889A3.03,3.03,0,0,1,3.477.7,2.782,2.782,0,0,1,4.266.222,2.238,2.238,0,0,1,5.141.066L18.967.492a1.852,1.852,0,0,1,.815.21,1.728,1.728,0,0,1,.6.522,1.914,1.914,0,0,1,.321.756,2.327,2.327,0,0,1-.013.911l-1.944,9.447a2.826,2.826,0,0,1-.363.908,3.031,3.031,0,0,1-.629.73,2.793,2.793,0,0,1-.807.478,2.274,2.274,0,0,1-.9.151" transform="translate(27.614 31.121)" fill="#fad757"/>
  <path id="Path_11345" data-name="Path 11345" d="M19.094.494,15.224.375,9.083.186,5.268.069A2.337,2.337,0,0,0,4.357.23a2.885,2.885,0,0,0-.821.491,3.143,3.143,0,0,0-.643.746,2.939,2.939,0,0,0-.376.926l-.491,2.29L1.013,9.41.519,11.715a2.475,2.475,0,0,0-.025.948,2,2,0,0,0,.316.789,1.764,1.764,0,0,0,.6.549,1.872,1.872,0,0,0,.834.227l3.832.157,6.169.253,3.888.159a2.374,2.374,0,0,0,.933-.156,2.9,2.9,0,0,0,.839-.5,3.143,3.143,0,0,0,.654-.76,2.951,2.951,0,0,0,.377-.946L19.42,10.1l.986-4.791.477-2.321a2.432,2.432,0,0,0,.014-.95,1.985,1.985,0,0,0-.333-.786,1.792,1.792,0,0,0-.621-.542,1.935,1.935,0,0,0-.85-.218M5.228.255,9.044.373A.559.559,0,0,1,9.3.442a.538.538,0,0,1,.185.172.634.634,0,0,1,.1.249.807.807,0,0,1-.009.3q-.008.039-.02.077t-.026.076q-.015.037-.033.074t-.039.072q-.22.366-.418.758t-.373.81q-.175.417-.327.859t-.282.906L2.221,4.6l.471-2.2a2.711,2.711,0,0,1,.346-.854A2.9,2.9,0,0,1,3.631.857,2.66,2.66,0,0,1,4.388.4a2.155,2.155,0,0,1,.84-.149M2.181,4.783l5.825.2q-.028.105-.055.212T7.9,5.407q-.026.107-.051.216T7.8,5.841L7.2,8.678q-.023.11-.044.219t-.041.217q-.019.108-.037.215t-.035.213L1.208,9.323Zm.106,9.256a1.726,1.726,0,0,1-.769-.209,1.626,1.626,0,0,1-.556-.506A1.843,1.843,0,0,1,.67,12.6a2.283,2.283,0,0,1,.023-.874L1.168,9.51l5.844.22q-.068.469-.1.918t-.039.876q0,.427.027.831t.093.784q.006.037.008.074t0,.076q0,.038-.006.077t-.013.079a.98.98,0,0,1-.119.3,1.009,1.009,0,0,1-.2.241.888.888,0,0,1-.256.158.7.7,0,0,1-.283.05Zm4.349.178a1.194,1.194,0,0,0,.178-.145,1.257,1.257,0,0,0,.267-.388,1.189,1.189,0,0,0,.074-.23q.01-.049.016-.1t.007-.1q0-.047,0-.094t-.011-.092a8.791,8.791,0,0,1-.105-.99q-.026-.514,0-1.064t.1-1.135q.078-.584.209-1.2l.6-2.838q.13-.615.3-1.193t.372-1.118q.2-.54.444-1.04T9.6,1.538q.026-.044.049-.089t.041-.091q.018-.046.033-.094t.024-.1A1.048,1.048,0,0,0,9.772.939.9.9,0,0,0,9.745.728.787.787,0,0,0,9.672.543.7.7,0,0,0,9.559.389l5.107.158a1.2,1.2,0,0,0-.178.145,1.254,1.254,0,0,0-.15.179,1.236,1.236,0,0,0-.115.207,1.171,1.171,0,0,0-.073.228q-.01.048-.016.1t-.007.095q0,.047,0,.093a.906.906,0,0,0,.011.091q.014.08.026.162t.023.164q.011.083.02.166t.017.167a.08.08,0,0,0,.01.033.069.069,0,0,0,.022.023.072.072,0,0,0,.03.011.088.088,0,0,0,.036,0,.109.109,0,0,0,.034-.017.121.121,0,0,0,.027-.028.118.118,0,0,0,.017-.034.1.1,0,0,0,0-.037q-.008-.086-.017-.171t-.021-.17q-.011-.084-.024-.168t-.027-.165q-.006-.036-.009-.073t0-.075q0-.038.006-.077t.013-.078a.967.967,0,0,1,.118-.3,1.008,1.008,0,0,1,.2-.241A.9.9,0,0,1,14.9.615a.709.709,0,0,1,.284-.052l3.87.12a1.785,1.785,0,0,1,.784.2,1.653,1.653,0,0,1,.572.5,1.831,1.831,0,0,1,.307.725,2.243,2.243,0,0,1-.013.876L20.247,5.21l-5.981-.2-.025,0-.025.007-.024.012-.022.016a.165.165,0,0,0-.02.02.169.169,0,0,0-.016.023.165.165,0,0,0-.012.025.153.153,0,0,0-.007.027l-.025.148c-.012.069-.027.155-.043.245s-.033.187-.05.278-.033.176-.048.245L13.355,8.9q-.129.619-.3,1.2t-.372,1.129q-.2.545-.446,1.051t-.519.969q-.027.044-.049.09t-.041.092q-.018.047-.033.095t-.025.1a1.07,1.07,0,0,0-.023.233.926.926,0,0,0,.028.215.813.813,0,0,0,.074.19.728.728,0,0,0,.115.158ZM19.261,10l-5.932-.222q.028-.106.055-.213t.052-.215q.025-.108.05-.218t.047-.22l.595-2.85c.013-.061.027-.133.041-.21s.029-.159.044-.24.028-.16.04-.231l.031-.183,5.924.2Zm-3.086,4.606-3.888-.159a.568.568,0,0,1-.26-.073.555.555,0,0,1-.188-.177.655.655,0,0,1-.1-.254.826.826,0,0,1,.008-.306q.008-.04.02-.079t.027-.077q.015-.038.033-.075t.039-.072q.222-.37.421-.767t.376-.818q.176-.422.329-.868t.282-.915l5.944.224-.461,2.241a2.721,2.721,0,0,1-.348.872,2.9,2.9,0,0,1-.6.7,2.671,2.671,0,0,1-.774.458,2.19,2.19,0,0,1-.86.144" transform="translate(27.506 31.026)"/>
  <path id="Path_11346" data-name="Path 11346" d="M18.057,9.518a9.351,9.351,0,0,1-1.187,3.293,9.835,9.835,0,0,1-2.235,2.607,9.507,9.507,0,0,1-2.963,1.655,8.571,8.571,0,0,1-3.366.444,7.66,7.66,0,0,1-3.135-.9A7.309,7.309,0,0,1,2.833,14.6a7.616,7.616,0,0,1-1.327-2.826A8.428,8.428,0,0,1,1.4,8.43a9.362,9.362,0,0,1,1.19-3.248A9.836,9.836,0,0,1,4.8,2.61,9.516,9.516,0,0,1,7.719.962a8.6,8.6,0,0,1,3.332-.47,7.682,7.682,0,0,1,3.132.858A7.31,7.31,0,0,1,16.55,3.33a7.6,7.6,0,0,1,1.37,2.819,8.4,8.4,0,0,1,.137,3.369" transform="translate(124.642 76.97)" fill="#272727"/>
  <path id="Path_11347" data-name="Path 11347" d="M17.839,9.435A9.377,9.377,0,0,1,16.648,12.7a9.837,9.837,0,0,1-2.219,2.587A9.431,9.431,0,0,1,11.5,16.933a8.415,8.415,0,0,1-3.319.442A7.469,7.469,0,0,1,5.1,16.481a7.144,7.144,0,0,1-2.291-2,7.519,7.519,0,0,1-1.29-2.8,8.411,8.411,0,0,1-.081-3.316A9.388,9.388,0,0,1,2.629,5.141a9.838,9.838,0,0,1,2.19-2.552A9.442,9.442,0,0,1,7.706.953,8.441,8.441,0,0,1,10.993.484a7.491,7.491,0,0,1,3.081.85A7.143,7.143,0,0,1,16.394,3.3a7.5,7.5,0,0,1,1.332,2.8,8.384,8.384,0,0,1,.114,3.342" transform="translate(113.395 76.304)" fill="#f3a712"/>
  <path id="Path_11348" data-name="Path 11348" d="M.808,12.332l-.042,0-.042-.006-.042-.008L.641,12.3A.626.626,0,0,1,.4,12.171.612.612,0,0,1,.25,11.96.66.66,0,0,1,.2,11.7a.746.746,0,0,1,.056-.284Q.5,10.8.717,10.169T1.109,8.9q.178-.636.318-1.278T1.669,6.34q.109-.691.174-1.379t.085-1.371q.02-.683,0-1.359T1.83.889A.711.711,0,0,1,1.859.607.808.808,0,0,1,1.99.354.853.853,0,0,1,2.2.157.818.818,0,0,1,2.477.043.727.727,0,0,1,2.762.038a.64.64,0,0,1,.244.1.6.6,0,0,1,.177.187.625.625,0,0,1,.085.258q.074.71.1,1.431t.006,1.45q-.021.729-.089,1.464T3.1,6.4q-.108.689-.257,1.374T2.5,9.136q-.189.679-.418,1.349t-.5,1.33a.823.823,0,0,1-.132.22.849.849,0,0,1-.187.166.827.827,0,0,1-.223.1.75.75,0,0,1-.24.029" transform="translate(145.261 44.103)" fill="#fff"/>
  <path id="Path_11349" data-name="Path 11349" d="M.81,10.7l-.044,0-.044-.006-.043-.009-.043-.012A.62.62,0,0,1,.4,10.537a.609.609,0,0,1-.149-.213A.659.659,0,0,1,.2,10.062a.748.748,0,0,1,.06-.283q.217-.516.4-1.042T1,7.678q.153-.533.272-1.072t.206-1.081q.094-.587.147-1.172t.067-1.165q.014-.58-.013-1.153T1.587.9A.708.708,0,0,1,1.611.618.807.807,0,0,1,1.739.363a.853.853,0,0,1,.21-.2A.817.817,0,0,1,2.22.046a.727.727,0,0,1,.285-.01.638.638,0,0,1,.245.1.6.6,0,0,1,.179.184.622.622,0,0,1,.088.256q.073.611.1,1.232t.015,1.249q-.014.628-.072,1.262T2.9,5.584q-.093.587-.223,1.171T2.387,7.917q-.165.578-.365,1.148t-.435,1.13a.825.825,0,0,1-.133.216.848.848,0,0,1-.186.163.824.824,0,0,1-.221.1A.746.746,0,0,1,.81,10.7" transform="translate(142.409 44.792)" fill="#fff"/>
  <path id="Path_11350" data-name="Path 11350" d="M.817,9.172l-.048,0L.721,9.161.674,9.151.627,9.137A.6.6,0,0,1,.255,8.78a.663.663,0,0,1-.043-.263.754.754,0,0,1,.067-.281q.188-.42.348-.849t.291-.864q.131-.435.232-.876t.173-.885q.079-.489.12-.975t.046-.968q0-.481-.029-.956T1.356.92A.7.7,0,0,1,1.372.639.8.8,0,0,1,1.492.382.851.851,0,0,1,1.7.177.82.82,0,0,1,1.963.051.733.733,0,0,1,2.248.033.641.641,0,0,1,2.5.12.6.6,0,0,1,2.681.3a.616.616,0,0,1,.1.252q.078.519.116,1.047t.033,1.063q0,.535-.05,1.076T2.743,4.819q-.079.494-.192.984t-.258.974q-.145.484-.323.961t-.387.944a.828.828,0,0,1-.135.209.847.847,0,0,1-.185.157.821.821,0,0,1-.217.1.743.743,0,0,1-.231.027" transform="translate(139.731 45.44)" fill="#fff"/>
  <path id="Path_11351" data-name="Path 11351" d="M.708,6.254l-.046,0L.617,6.244l-.045-.01L.528,6.221A.61.61,0,0,1,.3,6.084a.6.6,0,0,1-.144-.214.658.658,0,0,1-.046-.261A.749.749,0,0,1,.17,5.328q.116-.267.216-.54t.181-.549q.082-.277.146-.557t.11-.562q.046-.282.073-.564T.93,2q.009-.279,0-.555T.89.892A.713.713,0,0,1,.918.611.81.81,0,0,1,1.047.358a.852.852,0,0,1,.211-.2A.811.811,0,0,1,1.529.045.716.716,0,0,1,1.811.038a.63.63,0,0,1,.242.1A.593.593,0,0,1,2.23.322a.624.624,0,0,1,.085.257q.034.318.046.64t0,.648q-.01.326-.041.654t-.085.657q-.053.329-.128.656t-.17.65q-.1.323-.211.642t-.252.631a.827.827,0,0,1-.134.212.847.847,0,0,1-.185.159.82.82,0,0,1-.218.1.74.74,0,0,1-.233.028" transform="translate(137.29 46.959)" fill="#fff"/>
</svg>
